<svg width="200" height="200" viewBox="0 0 200 200" fill="none" xmlns="http://www.w3.org/2000/svg"><path fill-rule="evenodd" clip-rule="evenodd" d="M160.379 36.3101C160.379 35.7257 160.123 35.1706 159.679 34.7906C159.235 34.4106 158.648 34.2438 158.07 34.334L144.68 36.4263L144.675 36.4271L92.9066 44.6466L92.8776 44.6515L92.2054 44.7684L33.5481 54.0316C32.5761 54.1851 31.8601 55.023 31.8601 56.0071V77.1687C31.8601 77.7537 32.1162 78.3093 32.5609 78.6893C33.0056 79.0693 33.5944 79.2355 34.1722 79.1442L51.3479 76.4309V110.492C51.3477 110.503 51.3477 110.514 51.3477 110.525V151.922C51.3477 152.525 51.6198 153.096 52.0882 153.475L62.1908 161.665C63.0408 162.354 64.2867 162.232 64.987 161.391L74.3723 150.123C74.6716 149.764 74.8355 149.311 74.8355 148.843V107.296L74.8357 107.267V72.6901L90.7121 70.1834V104.179L90.7121 104.189V145.836L90.533 155.652C90.5223 156.243 90.7738 156.809 91.22 157.197C91.6663 157.585 92.2614 157.756 92.8456 157.664L158.692 147.232C159.663 147.078 160.379 146.241 160.379 145.257V111.129L166.462 110.17C167.434 110.016 168.15 109.178 168.15 108.194V89.065C168.15 88.48 167.894 87.9244 167.449 87.5444C167.005 87.1644 166.416 86.9982 165.838 87.0894L131.017 92.5891C130.045 92.7426 129.329 93.5805 129.329 94.5646V113.694C129.329 114.279 129.585 114.834 130.03 115.214C130.475 115.594 131.064 115.761 131.641 115.669L136.891 114.839V125.467L114.2 129.075V101.218C114.2 101.212 114.2 101.206 114.2 101.2V66.4718L136.891 62.8636V80.7853C136.891 81.3677 137.145 81.9211 137.586 82.301C138.028 82.681 138.613 82.8497 139.188 82.7631L158.676 79.834C159.655 79.6869 160.379 78.846 160.379 77.8562V36.3101ZM110.2 101.181V64.7647C110.2 63.7814 110.915 62.9439 111.886 62.7895L138.577 58.5452C139.155 58.4533 139.744 58.6192 140.19 58.9992C140.635 59.3792 140.891 59.9351 140.891 60.5204V78.4623L156.379 76.1343V38.6468L145.302 40.3776L145.297 40.3783L93.5484 48.5948L92.8755 48.7119L92.8448 48.717L35.8601 57.7161V74.828L53.0358 72.1146C53.6136 72.0234 54.2024 72.1896 54.6471 72.5696C55.0918 72.9496 55.3479 73.5052 55.3479 74.0901V110.525C55.3479 110.536 55.3478 110.547 55.3477 110.558V150.968L63.1766 157.315L70.8355 148.119V107.267L70.8357 107.238V70.9812C70.8357 69.997 71.5517 69.1591 72.5238 69.0056L92.4002 65.8673C92.9779 65.776 93.5667 65.9423 94.0113 66.3223C94.456 66.7023 94.7121 67.2579 94.7121 67.8428V104.188L94.7121 104.198V145.855C94.7121 145.867 94.7119 145.879 94.7117 145.891L94.5759 153.34L156.379 143.549V109.42C156.379 108.435 157.095 107.597 158.067 107.444L164.15 106.485V91.4056L133.329 96.2735V111.353L138.579 110.523C139.156 110.431 139.745 110.598 140.19 110.978C140.635 111.358 140.891 111.913 140.891 112.498V127.174C140.891 128.157 140.176 128.995 139.205 129.149L112.514 133.393C111.936 133.485 111.347 133.319 110.901 132.939C110.456 132.559 110.2 132.003 110.2 131.418V101.2C110.2 101.194 110.2 101.188 110.2 101.181Z" fill="black"/></svg>