<svg version="1.1" id="Слой_1" xmlns="http://www.w3.org/2000/svg" xmlns:xlink="http://www.w3.org/1999/xlink" x="0px" y="0px"
	 viewBox="0 0 24 24" style="enable-background:new 0 0 24 24;" xml:space="preserve">
<path d="M21,11.5v7c0,1.7-1.3,3-3,3H4c-1.7,0-3-1.3-3-3v-8c0-1.7,1.3-3,3-3h1.3l0.3-1c0.4-1.2,1.6-2,2.8-2H14c0.6,0,1,0.4,1,1
	s-0.4,1-1,1H8.5c-0.4,0-0.8,0.3-1,0.7L7,8.8C6.9,9.2,6.4,9.5,6,9.5H4c-0.6,0-1,0.4-1,1v8c0,0.6,0.4,1,1,1h14c0.6,0,1-0.4,1-1v-7
	c0-0.6,0.4-1,1-1c0,0,0,0,0.1,0C20.6,10.5,21,11,21,11.5z M22,4.5h-1v-1c0-0.6-0.4-1-1-1s-1,0.4-1,1v1h-1c-0.6,0-1,0.4-1,1
	s0.4,1,1,1h1v1c0,0.6,0.4,1,1,1s1-0.4,1-1v-1h1c0.6,0,1-0.4,1-1S22.6,4.5,22,4.5z M15,13.5c0,2.2-1.8,4-4,4s-4-1.8-4-4s1.8-4,4-4
	S15,11.3,15,13.5z M13,13.5c0-1.1-0.9-2-2-2s-2,0.9-2,2s0.9,2,2,2S13,14.6,13,13.5z"/>
</svg>
