<?xml version="1.0" encoding="utf-8"?>
<!-- Generator: Adobe Illustrator 26.3.1, SVG Export Plug-In . SVG Version: 6.00 Build 0)  -->
<svg version="1.1" id="deezer" xmlns="http://www.w3.org/2000/svg" xmlns:xlink="http://www.w3.org/1999/xlink" x="0px" y="0px"
	 viewBox="0 0 512 512" style="enable-background:new 0 0 512 512;" xml:space="preserve">
<path d="M421.2,7v42.9H504V7H421.2z M214.1,71.3v42.9h82.8V71.3H214.1z M421.2,71.3v42.9H504V71.3H421.2z M214.1,135.6v42.9h82.8
	v-42.9H214.1z M421.2,135.6v42.9H504v-42.9H421.2z M214.1,199.9v42.9h82.8v-42.9H214.1z M421.2,199.9v42.9H504v-42.9H421.2z
	 M7,264.2v42.9h82.8v-42.9H7z M214.1,264.2v42.9h82.8v-42.9H214.1z M317.6,264.2v42.9h82.8v-42.9H317.6z M421.2,264.2v42.9H504
	v-42.9H421.2z M7,328.5v42.9h82.8v-42.9H7z M110.5,328.5v42.9h82.8v-42.9H110.5z M214.1,328.5v42.9h82.8v-42.9H214.1z M317.6,328.5
	v42.9h82.8v-42.9H317.6z M421.2,328.5v42.9H504v-42.9H421.2z M7,392.8v42.9h82.8v-42.9H7z M110.5,392.8v42.9h82.8v-42.9H110.5z
	 M214.1,392.8v42.9h82.8v-42.9H214.1z M317.6,392.8v42.9h82.8v-42.9H317.6z M421.2,392.8v42.9H504v-42.9H421.2z M7,457.1V500h82.8
	v-42.9H7z M110.5,457.1V500h82.8v-42.9H110.5z M214.1,457.1V500h82.8v-42.9H214.1z M317.6,457.1V500h82.8v-42.9H317.6z M421.2,457.1
	V500H504v-42.9H421.2z"/>
</svg>
