<?xml version="1.0" encoding="utf-8"?>
<!-- Generator: Adobe Illustrator 24.2.0, SVG Export Plug-In . SVG Version: 6.00 Build 0)  -->
<svg version="1.1" id="Слой_1" xmlns="http://www.w3.org/2000/svg" xmlns:xlink="http://www.w3.org/1999/xlink" x="0px" y="0px"
	 viewBox="0 0 4903.9 4818.9" style="enable-background:new 0 0 4903.9 4818.9;" xml:space="preserve">
<style type="text/css">
	.st0{fill-rule:evenodd;clip-rule:evenodd;fill:#221E1B;}
</style>
<path class="st0" d="M2451.8,18C1097.9,18,0,1115.8,0,2470.1c0,1083.2,702.5,2002.2,1676.9,2326.5
	c122.6,22.5,167.4-53.2,167.4-118.2c0-58.2-2.1-212.4-3.3-417c-682.1,148.2-826-328.7-826-328.7
	c-111.5-283.3-272.2-358.7-272.2-358.7c-222.6-152.1,16.8-149,16.8-149c246.1,17.3,375.6,252.7,375.6,252.7
	c218.7,374.7,573.9,266.5,713.6,203.7c22.3-158.5,85.6-266.5,155.7-327.8C1460,3491.8,887.6,3281.4,887.6,2341.8
	c0-267.7,95.5-486.6,252.4-658c-25.2-62-109.4-311.3,24-648.9c0,0,205.9-65.9,674.3,251.4c195.6-54.4,405.3-81.6,613.9-82.5
	c208.2,0.9,418,28.1,613.9,82.5C3534.1,969,3739.6,1035,3739.6,1035c133.8,337.6,49.6,586.9,24.4,648.9
	c157.1,171.4,252,390.3,252,658c0,941.9-573.3,1149.2-1119.5,1209.9c88,75.7,166.5,225.3,166.5,454.1c0,327.8-3,592.3-3,672.6
	c0,65.6,44.2,141.9,168.6,117.9c973.5-324.9,1675.4-1243.3,1675.4-2326.2C4903.9,1115.8,3806,18,2451.8,18z"/>
</svg>
