<svg version="1.1" id="Слой_1" xmlns="http://www.w3.org/2000/svg" xmlns:xlink="http://www.w3.org/1999/xlink" x="0px" y="0px"
	 viewBox="0 0 100 100" style="enable-background:new 0 0 100 100;" xml:space="preserve">
<path d="M43.8,29c0.1,0,0.1,0,0.2,0l0,0c0.1-0.1,0.1-0.1,0.1-0.1c0,0,0,0,0-0.1l-0.1,0l-0.2,0L43.5,29c0,0,0.1,0,0.1,0
	C43.7,29,43.7,29,43.8,29L43.8,29z M43.2,29.1L43.2,29.1L43.2,29.1l-0.2,0L43,29.2l0.1,0L43.2,29.1L43.2,29.1z M38.2,31.7
	c0.2-0.2,0.4-0.3,1.1-0.5l0.5-0.2l0.3-0.1l0.2-0.2l0-0.2l-0.1,0L40,30.6l-0.1-0.1l0-0.1l-0.2,0l-0.3,0c-0.1,0-0.1,0.1-0.2,0.1
	l-0.3,0.2L38.4,31l-0.9,0.4l0.1,0.2L37.3,32l0.4-0.2c0.1,0,0.1,0,0.2,0L38.2,31.7L38.2,31.7z M44,29.3L44,29.3c-0.1,0-0.2,0-0.3,0.2
	l0.1,0C43.9,29.4,44,29.3,44,29.3z M42.6,29.5c-0.1,0-0.1,0-0.1,0l0,0l-0.1,0.1l0.1,0C42.4,29.6,42.6,29.5,42.6,29.5z M41,29.8
	L41,29.8l0.1,0l0.2-0.1l0.1,0l0.2-0.1l0.2-0.1l-0.2,0.1l0.1,0l0.2-0.1l0.3-0.2l0.3-0.1l0-0.1l-0.2,0.1c0,0-0.1,0-0.1,0l-0.1,0
	c-0.3,0.1-0.6,0.2-0.8,0.3c0,0-0.1,0-0.1,0L41,29.7l-0.2,0.1l0,0.1L41,29.8L41,29.8z M43.9,30l0.1-0.2c0,0-0.1,0-0.1,0l-0.1,0.1
	L43.6,30l0-0.1l0.2-0.2l-0.1-0.1l-0.2,0.2c0,0-0.1,0.1-0.1,0.1c0,0.1,0,0.2,0,0.2l0.1,0.1l0.2,0l0.1,0l0,0.1l-0.1,0.2l0.1-0.1l0.2,0
	l0.1,0l0.1-0.1c0.1-0.1,0.1-0.1,0.2-0.2c0.1,0,0.1-0.1,0.2-0.1c0,0,0.1-0.1,0.1-0.1c0,0,0-0.1,0-0.1c0,0-0.1,0-0.2,0.1l0-0.1
	c0,0-0.1,0-0.1,0C44.1,29.8,44.1,30.1,43.9,30z M41.2,29.9L40.9,30l0.1,0l0.4-0.2L41.2,29.9L41.2,29.9z M42.4,30L42.4,30
	c0,0.1,0,0.1-0.1,0.1c-0.1,0-0.1,0-0.2,0l0-0.1l0.1-0.2l0-0.1c0,0-0.1,0-0.1,0l0-0.1l0,0l-0.2,0l-0.3,0.1L41,30.1l-0.2,0.1l0.2,0
	l0.1,0.1l0.2,0l0.2,0l0.1,0.1c0,0,0.1,0,0.1,0c-0.1,0-0.1,0.1-0.3,0.1c-0.1,0-0.1,0-0.2,0l-0.2,0.1L41,30.5l0,0.1c0.1,0,0.1,0,0.2,0
	l0.3-0.1l0.3-0.1l0.2,0c0.1,0,0.1,0,0.2,0c0.1,0,0.1,0,0.2,0l0.2-0.1L43,30l0-0.1c0,0-0.1,0-0.1,0L42.8,30l0-0.1l0.1-0.1
	c0,0,0.1-0.1,0.1-0.1l0.1-0.1c0,0-0.1,0-0.1,0l-0.1,0.1l-0.1,0l-0.1,0.1C42.6,29.8,42.6,29.8,42.4,30L42.4,30z M43,30.2
	c0,0-0.1,0-0.1,0l-0.1,0.1c0,0,0.1,0,0.1,0C42.9,30.3,43,30.3,43,30.2C43.1,30.2,43.1,30.2,43,30.2L43,30.2z M43.8,30.6l0-0.1
	l-0.2,0.1C43.7,30.6,43.8,30.6,43.8,30.6L43.8,30.6z M44.6,29.3L44.6,29.3l-0.1-0.1l-0.1,0.1l0.1,0L44.6,29.3L44.6,29.3z M46.1,28.7
	L46.1,28.7l0.2,0l0.1,0l0,0.1c-0.1,0-0.1,0-0.1,0L46.1,28.7L46,28.8l0,0.1L46,29l0.1,0.1l0.2,0l0.1,0l0.1-0.1h0.1c0,0,0,0,0.1-0.1
	l0.1-0.1l0.1,0c0,0,0.1-0.1,0.1-0.1c0,0,0,0,0.1,0c0,0,0,0,0.1,0c0,0,0,0,0.1-0.1c0,0,0.1-0.1,0.1-0.1c-0.1-0.1-0.1-0.1-0.1-0.1
	l0-0.1l0.1-0.1l0,0c-0.1,0-0.1,0-0.1,0c0,0,0.1-0.1,0.1-0.1c0,0-0.1,0-0.1-0.1c0,0,0,0,0-0.1c0.1-0.1,0.1-0.1,0.1-0.1l0,0l0,0
	c-0.1,0-0.1,0-0.2,0H47l0,0c-0.1,0.1-0.1,0.1-0.1,0.1l-0.1,0c-0.1,0-0.1,0-0.1,0.1c0,0,0,0-0.1,0.1l-0.1,0l-0.1,0l-0.1,0.1l-0.1,0
	c0,0-0.1,0.1-0.1,0.1l0.1,0C46.2,28.6,46.1,28.6,46.1,28.7L46.1,28.7L46.1,28.7z M71.6,37.7L71.6,37.7c0.1,0.1,0.1,0.1,0.1,0.1
	l0.1,0.1l0,0l0,0l0,0l0,0l0,0c0,0,0.1,0.1,0.1,0.1l0-0.1l0,0l0,0c0,0,0,0,0.1,0c0,0,0-0.1,0-0.1l0,0c0,0,0,0,0,0c0,0,0,0,0,0
	c0,0,0,0-0.2-0.2v0C71.9,37.7,71.8,37.7,71.6,37.7L71.6,37.7L71.6,37.7z M45.4,29.3l-0.2,0.1l-0.1,0.1l0.2,0l0.1,0l0.1,0
	c0,0,0.1-0.1,0.1-0.1c-0.1,0-0.1,0-0.2,0C45.5,29.3,45.4,29.3,45.4,29.3L45.4,29.3z M45.9,29.3l-0.2,0.1l0.2,0c0.1,0,0.1,0,0.2-0.1
	c0-0.1,0-0.1,0-0.1L45.9,29.3L45.9,29.3z M45.9,28.6l0.1-0.1l0,0l-0.1,0C45.9,28.5,45.8,28.5,45.9,28.6L45.9,28.6l-0.1,0L45.9,28.6
	L45.9,28.6z M44.6,30.2l-0.3,0.1l-0.1,0.1l0,0.2c0,0,0.1,0,0.1,0l0.1,0.1l0.2-0.1l0.2-0.2l-0.1-0.1l0-0.1L44.6,30.2L44.6,30.2z
	 M44.5,29.1l0.1,0l0,0l0.1,0l-0.1,0.1l0.1,0l0.1-0.1l0.1-0.1l0-0.1l0.1-0.1l0-0.1l0-0.1l-0.1,0l0-0.1l0-0.1l-0.1,0l-0.2,0l-0.1,0.1
	l0.1,0l0,0L44.7,29c0,0-0.1,0-0.1,0L44.5,29.1L44.5,29.1L44.5,29.1L44.5,29.1z M45.3,29.2l0.1,0l0.1,0l0.1-0.1l0-0.1l-0.1,0l0-0.1
	l-0.1,0.1L45.4,29L45.3,29.2C45.2,29.2,45.3,29.2,45.3,29.2z M45.1,29.5l-0.2,0l-0.1,0.1l0,0.1l0.1,0.1l0.2,0l0.2-0.1l0.1-0.1l0-0.1
	C45.2,29.6,45.2,29.6,45.1,29.5L45.1,29.5L45.1,29.5z M43.1,29.3l0.2,0l0.2-0.1l0.1-0.1l0.1,0l0.2-0.1l-0.1,0c0,0-0.1,0-0.2,0
	l-0.2,0l-0.2,0.1l-0.2,0.2l0,0L43.1,29.3L43.1,29.3z M48.8,62.3H49c0.3,0,0.4-0.3,0.7-0.3c0.1,0,0.3,0.1,0.4,0.1s0.3-0.1,0.4-0.1
	c0.4,0,0.8-0.1,0.9-0.1c0.1,0,0.1,0,0.2,0c0.1,0,0.5,0.1,0.6,0.1c0.1,0,0.2,0,0.2,0c0.1,0,0.1-0.1,0.2-0.1l0,0
	c-0.1-0.1-0.2,0-0.2-0.1c-0.1-0.1,0-0.2,0-0.3c-0.4,0.1-0.4,0.1-0.7,0.1c-0.1,0-0.2,0-0.2,0c-0.1,0-0.2-0.1-0.3-0.1H51
	c-0.1,0-0.1,0.1-0.2,0.2c0,0-0.4,0-0.4,0c-0.2,0-0.2-0.2-0.4-0.2c-0.2,0-0.3-0.2-0.5-0.2l-0.8,0c-0.1,0-0.1,0-0.4,0.1
	c0,0.2,0,0.5,0,0.7C48.4,62,48.7,62.3,48.8,62.3L48.8,62.3z M47.6,60.9c-0.2-0.2-0.6-0.7-0.9-0.7c-0.1,0-0.2,0-0.2,0
	c-0.2,0-0.5,0.1-0.7,0c-0.2-0.1-0.2-0.2-0.4-0.3c-0.2-0.1-0.4-0.2-0.7-0.3c-0.3-0.1-0.3-0.1-0.3-0.2c0-0.1-0.1-0.1-0.2-0.1
	c-0.2,0-0.4,0-0.5,0c0,0,0,0-0.2,0.1c-0.1,0.1-0.2,0-0.3,0c-0.2,0-0.3,0-0.5,0c-0.4,0-0.4,0-0.5,0c-0.5,0.4,0.3,1,0.8,0.7
	c0.1-0.1,0.2-0.2,0.4-0.2c0,0,0.3,0,0.4,0c0,0,0.5,0.2,0.5,0.4c0,0.1,0,0.1,0.1,0.1c0,0,0.4,0.2,0.5,0.1c0.2,0,0.2,0,0.3,0.1
	c0,0.1,0.2,0.3,0.6,0.3C46.5,60.8,47,60.8,47.6,60.9L47.6,60.9z M56.4,45.3c0.1,0,0.2,0,0.3,0.2c0.3,0.3,0.4,0.3,0.6,0.4
	c0,0,0,0,0.1-0.1c0,0,0.1-0.1,0-0.5c-0.1-0.3-0.1-0.3,0-0.5l0,0c0-0.1-0.1-0.1-0.1-0.2c-0.2,0-0.2,0-0.3,0c0,0-0.3-0.2-0.4-0.3
	c-0.1-0.1-0.1-0.1-0.1-0.1c-0.1,0-0.3,0-0.4,0C56.1,44.1,56,44,56,44c0-0.3,0-0.3,0.1-0.4c0-0.1,0.1,0,0.1-0.1c0,0,0.1-0.2,0-0.3
	c0,0-0.1-0.1-0.1-0.1c0,0-0.1,0-0.1,0c0,0-0.2,0.1-0.2,0.1c0,0.1,0,0.1,0,0.2c0,0.1,0,0.1,0,0.2c0,0.1,0,0.1,0,0.1
	c0,0-0.2,0.4-0.6,0.8c-0.1,0.1-0.2,0.2-0.2,0.3c0,0.1,0,0.2,0,0.3c0,0.1,0.1,0.1,0.1,0.2C55.5,45.3,56,45.3,56.4,45.3L56.4,45.3z
	 M62.9,34.8L62.9,34.8c0.2-0.1,0.4,0.1,0.6,0.2c-0.1,0-0.3-0.1-0.5,0c0.1,0.1,0.1,0.1,0.2,0.2l0.1,0c0.1,0,0.1,0,0.2,0l0.1,0
	c0.1,0.1,0.2,0.2,0.2,0.3l0.2,0.1c0,0,0.1,0,0.1,0c0.1,0,0.1,0,0.3-0.1c0,0,0.1,0,0.1,0c0.2,0,0.2,0.1,0.4,0.2c0.2,0.1,0.3,0,0.4,0
	l0-0.2C65,35.5,65,35.5,65,35.4c0,0,0-0.1,0-0.1h0.1c0-0.1-0.1-0.2,0-0.2c0,0,0,0,0.3,0c-0.1-0.1-0.2-0.2-0.3-0.3
	c-0.1,0-0.1-0.1-0.2-0.1c-0.2-0.1-0.2-0.1-0.2-0.1l0,0c-0.1-0.1-0.1-0.2-0.2-0.3c-0.1-0.1-0.1-0.1-0.2-0.2c-0.1,0-0.1,0-0.2,0
	c-0.1,0,0,0.1,0,0.1c0,0,0,0.1,0,0.1l0,0.1c-0.1,0-0.2,0-0.3,0c-0.2,0-0.2,0.1-0.2,0.1c0,0.1,0,0.1,0,0.1c-0.1,0-0.1,0-0.2,0
	c0,0-0.1-0.1-0.1-0.1c0,0-0.1-0.1-0.1-0.1c-0.1,0-0.1-0.1-0.2-0.1l-0.1,0c0,0,0.1,0.1,0.1,0.1c-0.2-0.1-0.2-0.1-0.2-0.1
	c0,0-0.2,0-0.2,0.1C62.6,34.6,62.8,34.9,62.9,34.8L62.9,34.8z M46.1,62.3C46.1,62.3,46.1,62.3,46.1,62.3c0.1,0.1,0.2,0.1,0.2,0.1
	c0,0,0,0,0.2-0.2l0,0c0-0.1,0-0.2-0.1-0.2c-0.1,0-0.1,0-0.2,0c-0.1,0-0.1-0.1-0.2-0.1l-0.1,0c-0.2,0-0.4,0-0.7,0
	c0,0.1,0.1,0.1,0.1,0.2l0.1,0.1c0,0,0.1,0,0.2,0c0.1,0,0.3,0.1,0.3,0.1C46.1,62.1,46.1,62.2,46.1,62.3L46.1,62.3z M72.5,41.7
	C72.5,41.6,72.5,41.6,72.5,41.7c-0.2-0.2-0.2-0.2-0.2-0.2l0,0c0-0.1-0.3-0.4-0.4-0.6c0-0.1-0.1-0.1-0.1-0.2h0c0,0,0-0.1,0-0.2
	l-0.4-0.4c-0.1-0.1-0.1-0.1-0.1,0c0,0-0.1,0-0.1-0.1h0c0,0,0,0.1-0.1,0.1c0,0,0,0.1,0,0.1c-0.1,0-0.2-0.1-0.2-0.2l-0.1,0
	c0.1,0.1,0.2,0.3,0.3,0.4l0,0l0,0l0,0l0,0l0,0l-0.1,0l0,0.1c0,0-0.1,0-0.1-0.1l0,0c0.1,0.2,0.3,0.4,0.4,0.6c0.1,0,0.1,0,0.2,0
	c0.1,0.1,0.1,0.2,0.2,0.3c-0.1,0-0.1,0-0.1,0c0,0,0.1,0.2,0.1,0.2c0,0.1,0.1,0.1,0.1,0.2l0,0c0.1,0.2,0.3,0.3,0.3,0.3
	c0.1-0.1,0.1-0.1,0.2,0c0,0,0,0,0-0.3c0.1,0,0.3,0,0.4,0C72.5,41.7,72.5,41.7,72.5,41.7L72.5,41.7z M74,42.3c0.1,0,0.2,0.1,0.2,0.1
	l0,0c0,0,0.1,0,0.1,0c0-0.1,0-0.1,0-0.2l0,0l0,0c-0.1-0.1-0.2-0.2-0.2-0.3l0,0c0-0.1,0-0.1,0-0.1l0.1,0c0,0-0.1-0.1-0.1-0.2l0.1,0
	c0-0.1-0.1-0.1-0.1-0.2c-0.1-0.1-0.2-0.2-0.4-0.3l0,0c0,0,0.1,0.2,0.1,0.2c0,0,0,0-0.4-0.5c0,0-0.1,0-0.1,0
	c-0.2-0.2-0.3-0.5-0.4-0.5c0,0-0.1-0.1-0.1-0.1c-0.1-0.1-0.2-0.2-0.3-0.2c-0.1-0.1-0.2-0.2-0.3-0.3c-0.1-0.1-0.3-0.1-0.4-0.2
	l-0.1-0.2l0,0c0,0,0-0.1-0.1-0.1c-0.1-0.1-0.1-0.2-0.1-0.3c-0.1-0.1-0.2-0.2-0.3-0.3c-0.1,0-0.2,0-0.3,0.1c-0.3-0.5-0.3-0.6-0.4-0.6
	l0,0l-0.1,0c0,0-0.1,0-0.2,0c0,0,0,0,0.2,0.3c0.1,0.1,0.2,0.2,0.2,0.3c-0.1,0.1-0.2-0.1-0.3-0.1c0,0,0.1,0.3,0.4,0.4
	c0,0,0,0.1,0,0.1c0,0,0,0.1,0.1,0.1c0.1,0.1,0.1,0.1,0.2,0.2c-0.1,0.1-0.1,0.1,0.1,0.3c0,0,0.1,0,0.1,0l0,0c0,0,0.2,0.1,0.2,0.2
	l0.1,0c-0.1-0.1-0.1-0.1-0.1-0.2c0,0,0.3,0.3,0.4,0.4l0,0l0,0.1c0.1,0.1,0.1,0.1,0.2,0.2c0.1,0,0.1,0,0.2,0l0-0.1
	c0.3,0.1,0.3,0.4,0.5,0.5c0.1,0.2,0.3,0.2,0.3,0.4c-0.1,0-0.2-0.1-0.3,0l0,0l0,0c0,0,0,0.1,0,0.1c0,0,0,0.1,0,0.1l-0.1,0
	c0.1,0.1,0.1,0.1,0.1,0.1c0.1-0.1,0.2,0,0.2,0.1l0,0c0,0.1,0,0.1,0,0.2l0,0h0h0h0h0l0,0h0c0,0.1,0.2,0.3,0.2,0.3c0,0,0-0.1,0-0.1
	l0.3,0.1c0,0,0.2,0.2-0.1,0.2c0,0.1,0,0.1,0,0.2l0,0l-0.1,0.1c0.2,0.3,0.2,0.3,0.1,0.4l0.1,0.1c0,0,0,0,0.1-0.1c0,0,0,0,0-0.1
	c0,0,0,0,0.1,0.1c0,0,0.1,0,0.1,0c-0.1-0.2-0.1-0.2-0.1-0.2c0.1,0,0.1,0,0.1,0c0,0,0.1,0,0.2,0C74,42.4,74,42.4,74,42.3L74,42.3
	L74,42.3z M53.2,44.1c-0.1,0-0.1,0-0.2,0c-0.2-0.1-0.2-0.1-0.3-0.2c-0.1-0.1-0.1-0.1-0.2-0.1s-0.1,0-0.1,0c0,0-0.1,0.1-0.2,0.1
	c0.1,0,0.1,0,0.2,0.1c0.1,0,0.1,0.1,0.1,0.2l0,0c0.1,0,0.1,0.1,0.2,0.1c0.1,0,0.1,0.1,0.1,0.1c0,0,0.1,0,0.1,0.1
	c0.1,0,0.2,0,0.3-0.3l0,0C53.5,44.2,53.4,44.2,53.2,44.1C53.3,44.1,53.3,44.1,53.2,44.1L53.2,44.1z M70.1,38.5L70.1,38.5
	C70.2,38.5,70.1,38.5,70.1,38.5c0-0.1,0-0.1,0-0.1l0,0c0,0,0,0-0.1-0.2l0,0l0,0.1c0,0,0,0.1,0,0.1l0,0v0c0,0,0,0,0,0.1
	C70,38.5,70,38.5,70.1,38.5c-0.1,0.1,0,0.1,0,0.2l0.1,0l0,0l0,0C70.1,38.5,70.1,38.5,70.1,38.5L70.1,38.5z M66.4,73.4
	c-0.1,0-0.3,0-0.5,0c-0.5-0.1-0.6-1-1.3-0.8c-0.2,0-0.4,0-0.6,0c-0.4-0.2-0.7-0.4-0.8,0c-0.1,0.1-0.2,0.2-0.5,0c0-0.1,0-0.1,0.3-0.3
	c-0.7-0.5-0.7-0.5-1.1-0.5c0,0-0.1,0-0.2-0.1c-0.2-0.1-0.3-0.1-0.6-0.1c0,0.2,0,0.3-0.1,0.5c-0.1,0-0.3,0-0.4,0c0-0.1,0-0.1,0.1-0.3
	c0.1-0.1,0.1-0.1,0.2-0.2c0,0,0.1-0.1,0.1-0.1c0,0,0-0.1,0-0.1c0,0-0.2-0.1-0.6-0.2c0,0-0.1,0-0.1,0c0,0-0.1,0-0.1,0
	c0,0-0.1,0.1-0.1,0.1c0,0.3-0.1,0.4-0.5,0.4c0-0.1,0-0.1,0.1-0.3c0.7-0.7,0.7-0.7,0.5-1.1c-0.1,0-0.2,0-0.3,0c0-0.2,0-0.4,0.1-0.6
	c-0.2-0.6-0.2-0.6-0.3-0.6c0,0-1.1-0.5-1.4-0.7c-0.3-0.1-0.5,0.1-0.8,0c-0.1,0-0.1,0-0.2,0c-1-0.2-1.1-0.4-1.3-1
	c-0.1,0-0.1,0-0.6-0.3c0,0,0-0.1,0-0.1c-0.4-0.1-0.4-0.3-0.3-0.5c0,0-0.1,0-0.2,0c-0.5,0.1-0.5,0.1-0.6,0.1c0-0.3,0-0.3,0-0.4
	c0.1,0,0.2-0.1,0.3-0.1c-0.1-0.2-0.1-0.2-0.5-0.2l-0.3,0.2c0,0,0,0-0.1,0c-0.2-0.1-0.3-0.1-0.4-0.1c-0.2,0.5-0.2,0.5-0.4,0.5
	c-0.2-0.2-0.4-0.4-0.7-0.5c-0.2,0-0.4,0-0.7,0c-0.1,0-0.2,0-0.3-0.1c0-0.1,0-0.2-0.1-0.3c-0.3,0-0.6-0.4-1-0.3c0,0.2,0,0.2-0.2,0.4
	c-0.3,0-0.5,0.2-0.5,0.2c-0.1,0.3,0.1,0.6,0,1c-0.6-0.3-0.1-0.9-0.3-1.3c0-0.2,0.5-0.5,0.5-0.5l-0.1-0.1h-0.2
	c-0.3,0.1-0.4,0.1-0.4,0.5c-0.2,0-0.4,0-0.7,0c-0.2,0.1-0.5,0.4-1.1,0.4c0,0.2,0,0.4-0.1,0.7c-0.2,0.1-0.2,0.1-0.4,0.1
	c-0.2,0.3-0.2,0.4-0.2,0.5c-0.4,0.3-0.5,0.5-0.5,0.6c0.1,0,0.2,0.1,0.3,0.1c0,0.4,0.5,1,0,1.3c-0.1,0.6-0.1,0.6-0.2,0.8
	c-0.1,0-0.2,0-0.3,0c0,0.1,0,0.3,0.1,0.4c-0.1,0.1-0.2,0.1-0.3,0.2c0,0.1,0,0.1,0,0.2c-0.3,0.1-0.5,0.1-0.5,0.6
	c-0.2,0-0.3,0-0.4,0.1c0,0.3-0.1,0.6,0,0.9c0,0,0.1,0,0.1,0.1c0.2-0.1,0.2-0.1,0.4,0c0,0.1,0,0.1,0,0.3c-0.1,0.1-0.3,0.1-0.4,0.1
	c0,0.2,0,0.2-0.3,0.4c0,0.2,0,0.2,0.2,0.5c0,0,0,0.1,0,0.1c0,1,1.4,1,1.5,1.9c0,0.1,0,0.1,0,0.2c1.7,2.4,1.7,2.4,1.9,2.4
	c0,0,0.8,0.1,1.6,1.1c0.1,0,0.2,0,0.3,0c0,0.3,0,0.6,0,0.9c0,0.1,0,0.2,0,0.3l0,0c0,0,0,0.1,0,0.1c0,0,0,0.1,0,0.1c0,0,0,0,0,0.2
	c0,0.1,0,0.2,0,0.3l0,0c0,0,0,0.1,0,0.2c0,0,0,0.1,0,0.1v0c0,0,0,0.1-0.1,0.2c0,0.1,0,0.2,0.1,0.3l0,0.1c0,0,0,0,0,0.1
	c-0.1,0.3-0.3,0.5-0.3,0.8c-0.3,0.9-0.3,0.9-0.4,1.1c0,0,0,0,0,0.1c0.2,1,0.2,1.2-0.3,1.7c0,0,0,0.1,0,0.2c0,0,0,0.1,0,0.1l0,0
	c-0.1,0.2-0.3,0.3-0.4,0.6c0.2,0.4,0.2,0.5,0,0.9c0,0,0,0.1,0.1,0.1c0,0.1,0.1,0.2,0,0.2c0,0-0.1,0-0.1,0c-0.1,0.3-0.1,0.3-0.1,0.4
	c0,0,0.1,0,0.1,0.1h0.2l0-0.5c0.1,0,0.2,0,0.2,0c0,0,0,0.1,0,0.2c0,0-0.1,0.1-0.1,0.1c0,0.1,0,0.2,0,0.3c0,0,0,0-0.1,0.5
	c-0.1,0-0.1-0.1-0.2-0.1c0,0,0,0,0-0.1c0,0,0,0-0.1,0c0,0.1,0,0.1,0.1,0.2c0,0.1,0.1,0.2,0.1,0.2c-0.1,0-0.2-0.1-0.3-0.2
	c0,0,0,0.1-0.1,0.2c0,0,0,0.1,0,0.1c0.1,0,0.2,0,0.3,0.1c0,0,0,0.1,0,0.1c0,0,0.1,0,0.1,0c0,0,0,0.1,0,0.1c-0.3,0-0.3,0-0.4,0.1
	c0,0,0,0,0,0.1c0,0,0.1,0.1,0.1,0.1c0,0,0,0,0,0.2c0,0.1,0.1,0.2,0.1,0.2l-0.1,0l0.1,0c0,0,0.1,0,0.1,0.1c0,0,0.1,0,0.1,0v0l0,0
	c0.1,0.2,0.3,0.2,0.4,0.4c0,0,0.1,0,0.1,0c0,0,0,0,0.1,0.1c0.1,0,0.2,0,0.3,0c0,0,0,0,0.1,0c0.1,0,0.2,0,0.4,0c0,0,0.1-0.1,0.2-0.1
	c-0.1,0-0.2,0-0.3,0c0,0,0,0-0.1-0.1c0-0.1,0-0.2-0.1-0.3l0,0c0-0.1,0-0.2,0-0.3c0,0,0,0,0-0.1c0,0,0-0.1,0-0.2c0.1,0,0.2,0,0.2,0
	c0,0,0-0.1,0-0.1c0.2-0.2,0.4-0.4,0.7-0.5c0,0,0-0.1-0.1-0.1c0,0-0.1,0-0.1,0c-0.2-0.2-0.2-0.2-0.2-0.3c0,0,0,0,0-0.1
	c0.1,0,0.2-0.1,0.3-0.1c0.1,0,0.2,0,0.3,0c0-0.1,0-0.2,0.1-0.3c0.1-0.1,0.1-0.1,0.2-0.4c0.3,0,0.3,0,0.4-0.1c0,0,0,0,0-0.1h0l0,0h0
	c0,0,0,0,0,0c-0.1,0-0.2,0.1-0.3,0.1c0-0.1,0-0.2,0-0.3c0-0.1,0-0.1,0-0.2c0,0,0.1,0,0.2,0c0,0,0.1,0.1,0.1,0.1c0.1,0,0.3,0,0.4-0.1
	c0,0,0,0,0-0.1c0,0,0.1,0,0.1-0.1c0-0.1,0-0.2,0-0.3c0,0,0-0.1,0-0.1c0.1,0,0.2,0,0.4,0c0,0,0.1,0,0.2,0c0.1,0,0.2,0,0.3-0.1
	c0.1,0,0.2,0,0.4,0c0,0,0.6-0.4,0.8-0.6l0.1-0.1c0-0.1,0-0.1,0.1-0.2c0,0-0.1,0-0.1,0c0,0,0-0.1,0.1-0.2c-0.1-0.1-0.1-0.1-0.3-0.3
	c0,0,0-0.1,0-0.1c0.1,0,0.2,0,0.3,0c1.1,0.2,1.1,0.2,1.6-0.2c1.3-1.1,1.3-1.1,1.3-1.1c-0.1,0.1-0.1,0.2-0.2,0.2
	c0.1,0,1.6-1.1,1.6-1.6c0-0.3,0-0.6,1.3-1.3c0.1,0,0.3,0,0.4,0c0.1,0,0.1,0,0.5-0.3c0.3,0,0.7,0,1-0.1c0-0.1,0.1-0.2,0.2-0.2
	c0.2,0,0.2,0,1.3-1.3c0.1,0,0.1,0,0.5-0.8c0,0,0-0.1,0.1-0.2c0.2-0.3,0.3-0.4,0.4-0.6c0,0,0-0.1,0.1-0.2c0,0,0-0.1,0-0.1
	c0-0.1,0-0.1,0.1-0.3c0.1-0.2,0.1-0.4,0.3-0.6c0,0,0.9-0.8,1.2-1l0.8-1c0.2-0.3,0.2-0.3,0.3-0.5C66.7,73.5,66.6,73.4,66.4,73.4
	L66.4,73.4z M39,33.5l0.2,0.1l0.3-0.1l0.2,0l0.2-0.2l-0.4,0.1L39,33.5L39,33.5z M42.1,30.9l-0.2-0.1c-0.1,0-0.1,0.1-0.2,0.1
	c0,0.1,0,0.1,0,0.1c0,0,0,0,0,0.2l0.2-0.1L42.1,30.9L42.1,30.9L42.1,30.9z M44.6,30.8l-0.1-0.1c-0.3,0-0.3,0-0.3,0.1
	C44.1,31,44,31,43.9,31.1c-0.1,0.1-0.1,0.2-0.2,0.3c-0.1,0.3-0.1,0.3-0.2,0.3l0.2,0l0.2-0.1l0.1-0.2l0.2,0.1l0.2-0.1l0.2-0.2
	c0.1-0.1,0.2-0.1,0.2-0.2c-0.1-0.1-0.1-0.1-0.1-0.1C44.7,30.9,44.7,30.9,44.6,30.8L44.6,30.8z M43.5,30.9L43.5,30.9l-0.2-0.1
	l-0.1,0.1h-0.1l-0.1-0.1l-0.2,0L42.8,31v0.2c-0.4,0.3-0.4,0.3-0.4,0.1l-0.1,0l-0.2,0.1l0.1,0.1l0,0.1c0,0,0.1,0,0.1,0.1
	c0,0.1-0.1,0.2-0.1,0.2l0,0c0,0,0.2,0.1,0.2,0.1c0,0,0.2-0.1,0.3-0.2l0.3,0l0.2-0.2l0-0.2l0-0.2l-0.1-0.1
	C43.5,31.1,43.5,31.1,43.5,30.9z M41.3,31.1c-0.1,0.1-0.2,0.1-0.2,0.2L41,31.5l-0.1,0.2l-0.2,0.1l-0.1,0l0-0.1l0.1-0.2l0.1-0.1
	l0.1-0.2l-0.1,0l-0.1,0.1l-0.1,0.1c-0.1,0-0.1,0-0.2,0l-0.1,0.1l-0.2,0l0.2-0.1l0.2-0.1l-0.1,0l-0.1-0.1l-0.2,0L40,31.3l-0.1,0
	l0.1-0.1l0.2-0.2l0,0c-0.1,0-0.1,0-0.2,0l-0.3,0.1l-0.2,0.1l-0.2,0l-0.3,0.1l-0.2,0.2l-0.3,0.1l-0.1,0.1c0,0,0.1,0,0.1,0l-0.1,0.1
	l0.2-0.1l0.2,0l0,0.1l-0.3,0.1l-0.2,0l-0.2,0.1l0.1,0.1c0.1,0,0.2,0,0.2,0l0.3,0c0.1,0,0.1,0,0.2,0c0,0,0.1,0.1,0.1,0.1
	c0,0,0,0-0.2,0.1l-0.4,0c-0.1,0-0.2,0-0.3,0l-0.4,0.1l-0.2,0.3l0.3,0c0.1,0,0.2,0,0.2,0l-0.1,0.3l0.1,0.1c0.1,0,0.2,0,0.3,0h0.3
	l0.3-0.1l0.3-0.1l0.3-0.1l0.2-0.1l0,0.1l0.2,0l0.2,0.2l0.2,0l0.2,0L41,33l-0.1-0.2l0.2,0l0.2,0l0.1-0.1l-0.1-0.2l-0.3-0.2v-0.2
	l0.2-0.2l0-0.2l0.2-0.3l0.1-0.2l-0.1-0.1C41.4,31.1,41.4,31.1,41.3,31.1L41.3,31.1z M41.4,31l0.1,0l0.2-0.1l-0.1,0L41.4,31L41.4,31z
	 M46.1,36.8L45.8,37l0.1,0.4c0.1,0,0.2,0,0.4,0l0.2-0.1c0,0,0-0.1,0-0.1c0-0.1,0-0.2,0-0.3L46.1,36.8L46.1,36.8z M47.1,30.5
	c0,0,0-0.1,0.1-0.1l0,0l0-0.2l-0.2-0.1l-0.2-0.1l-0.2,0.1l-0.3,0.1l-0.2,0l-0.2-0.1l-0.2,0L45.6,30l0.1-0.2l0-0.1
	c-0.1,0-0.1,0-0.2,0c0,0-0.1,0-0.2,0c-0.1,0.2-0.1,0.2-0.2,0.4L45,30.3l0,0.1l0.1,0.1l0.3,0c0.1,0,0.1-0.1,0.2-0.1
	c0.1,0.2,0.1,0.2,0.4,0.2c0.1,0,0.2,0,0.3,0l0.2,0l0.1-0.1l0.1,0.1C47.1,30.6,47.1,30.6,47.1,30.5L47.1,30.5z M45.2,36.7
	c0,0,0,0-0.1,0c0,0-0.1,0-0.3,0.1c0,0-0.1,0-0.1,0.1c0,0,0.1,0.1,0.1,0.1c0,0,0.1,0,0.2,0c0.1,0,0.2-0.1,0.3-0.1c0,0,0,0,0.1-0.1
	l0,0l0-0.2C45.3,36.6,45.3,36.7,45.2,36.7L45.2,36.7z M47.5,34.3l0.3-0.1l0.2-0.2l-0.1-0.2c-0.4,0-0.4,0-0.5,0s-0.1,0.1-0.2,0.3
	l0.1,0.2L47.5,34.3L47.5,34.3z M47.2,31c-0.1,0-0.2,0-0.3,0l0,0.2l0,0.2l0.5,0l0.2-0.1l0.3-0.1l-0.2-0.2L47.2,31L47.2,31z
	 M90.8,45.6v-1.5c0-1.1-0.6-2-1.4-2.5v-4.2c0-0.3-0.2-0.5-0.4-0.6c0-0.2,0-0.3,0-0.5c0-0.3-0.1-0.6-0.1-0.9
	c-0.2-1.9-0.6-3.8-1.3-5.7c-0.2-0.7-0.5-1.3-0.7-2c-0.9-2.3-2.1-4.6-3.6-6.7c-1.5-2.1-3.2-4-5-5.7c-1.9-1.7-3.9-3.2-5.9-4.5
	c-2.1-1.3-4.1-2.3-6.2-3.1c-0.5-0.2-1-0.4-1.5-0.6c-0.5-0.2-1-0.4-1.5-0.5c-0.5-0.2-1-0.3-1.5-0.5c-0.2-0.1-0.5-0.1-0.7-0.2
	c-0.2-0.1-0.5-0.1-0.7-0.2c-0.5-0.1-0.9-0.2-1.4-0.4C58.4,5.2,58,5.1,57.5,5c-0.9-0.2-1.7-0.3-2.4-0.5c-1.4-0.2-2.7-0.4-3.8-0.5
	h-3.8c-1.1,0.1-2.3,0.3-3.8,0.5C43,4.7,42.2,4.8,41.3,5c-0.4,0.1-0.9,0.2-1.3,0.3c-0.5,0.1-0.9,0.2-1.4,0.4
	c-0.2,0.1-0.5,0.1-0.7,0.2c-0.2,0.1-0.5,0.1-0.7,0.2c-0.5,0.2-1,0.3-1.5,0.5c-0.5,0.2-1,0.3-1.5,0.5c-0.5,0.2-1,0.4-1.5,0.6
	c-2,0.8-4.1,1.9-6.2,3.1s-4.1,2.8-5.9,4.5c-1.9,1.7-3.6,3.6-5,5.7c-1.5,2.1-2.7,4.3-3.6,6.7c-0.3,0.7-0.5,1.3-0.7,2
	c-0.7,1.9-1.1,3.8-1.3,5.8c0,0.3-0.1,0.6-0.1,0.9c0,0.2,0,0.3,0,0.5c-0.2,0.1-0.4,0.3-0.4,0.6v4.2c-0.8,0.5-1.4,1.4-1.4,2.5v1.5
	c-4.2,0.1-7.6,6.9-7.6,15.3c0,8.4,3.4,15.2,7.6,15.3V77c0,1.6,1.3,2.9,2.9,2.9c1.5,0,2.8-1.2,2.9-2.7h2.3c1.1,0,2-0.5,2.7-1.3
	c1.7,3.4,4,6.6,6.8,9.3c6.4,6.2,14.8,9.6,23.7,9.6c9.3,0,18-3.7,24.4-10.3c2.5-2.6,4.5-5.5,6.1-8.6c0.6,0.8,1.6,1.3,2.7,1.3h2.3
	c0.1,1.5,1.4,2.7,2.9,2.7c1.6,0,3-1.3,3-2.9v-0.8c4.2,0,7.7-6.9,7.7-15.3C98.5,52.4,95,45.6,90.8,45.6L90.8,45.6z M73.1,83.8
	c-6.3,6.5-14.7,10-23.7,10c-8.6,0-16.7-3.3-22.9-9.3c-2.9-2.8-5.3-6.1-6.9-9.7c0.1-0.3,0.1-0.6,0.1-0.9V47.2c0-0.2,0-0.3,0-0.5
	c1.5-3.2,3.6-6.2,6.1-8.8c0.3-0.3,0.7-0.7,1-1l0.1,0c0.1-0.1,0.3-0.4,0.4-0.4l0.2,0.1l-0.1,0.3l0,0.3l0.1,0.1l0.3-0.1l0,0.2
	c0,0,0.1,0,0.2,0l-0.1,0.3l0.1,0.3c0,0.1,0,0.3,0,0.4c0.1,0,0.1,0,0.2-0.1l0,0.2l-0.1,0.3l0.2,0.1L28,39.2l0.1,0.2l-0.2,0.2l0.1,0.1
	l0.2,0.1L28,40.1l-0.1,0.3l-0.2,0.4l-0.1,0.3l0.2,0.1l-0.2,0.4l0,0.4l-0.1,0.3l0.2,0.2l0.2,0.2l0.2,0.1l-0.1,0.2l0.2,0.3l0.1,0.3
	l-0.1,0.6c-0.1,0.1-0.1,0.3-0.2,0.4l-0.1-0.3L28,44l0.1-0.2l-0.2-0.2l-0.1-0.1l0.1-0.4c-0.1,0-0.1,0-0.2,0l-0.1-0.2l-0.1-0.1
	l-0.1-0.1l-0.2,0l0,0.3l0.1,0.2l0.1,0.3l0.2,0.4l-0.1,0.4l-0.1,0.6l-0.2,0.4L27,46c-0.1,0.2-0.2,0.5-0.3,0.7l-0.2,0.2
	c-0.1,0.2-0.1,0.3-0.2,0.5l0,0.5l-0.2,0.5l-0.1,0.4l0,0.3L26,49.5l0.1,0.4l0.2,0.3l0,0.7l0.2,0.3l0,0.4l0.1,0.4c0.1,0,0.2,0,0.4,0
	l0.2,0.3l0.4,0.3l0.2,0.4l0,0.5l0.1,0.5l0.1,0.8L28,55l0.3,0.4l0.1,0.3L28,55.9l0.1,0.3l0.3,0.3l0.4,0.3l0.2,0.4L29,57.6l0.1,0.3
	l0.3,0.2l0.3,0.3l0.2,0.3l0,0.3l0.2-0.1l0.1-0.4L30,58.1l-0.3-0.2l0-0.4l-0.3-0.3l-0.1-0.5l-0.1-0.4L29,56l0-0.4l-0.3-0.2l-0.1-0.5
	l-0.3-0.5l0-0.6l0.3,0L29,54l0.2,0.3l0,0.5l0.3,0.7l0.4,0.6l0.3,0.4l0.2,0.4l0,0.4l0.4,0.3l0.3,0.4l0.2,0.5l0.5,0.6l0.2,0.5l0.3,0.3
	l-0.3,0.2l-0.1,0.3l0.5,0.5l0.5,0.4l0.6,0.2l0.6,0.4l0.7,0.4l0.8,0.4l0.6,0.2l0.4,0l0.1-0.2l0.5,0l0.5,0.3l0.6,0.5l0.3,0.4
	c0.2,0,0.3,0,0.5,0l0.2,0l0.3,0.1l0.3,0.4l0.6,0.2l0-0.3l0.3,0.2c1,1.3,1,1.3,0.9,1.6l0.2,0.2l0.2-0.1l0.3,0.2
	c0.7,0.6,0.7,0.6,1,0.6l0.8,0.4l0.4,0.2l0-0.4l0.2-0.3l0.8,0.1l0.1,0.3l0.3,0L46,67l-0.3-0.3c-0.3,0-0.5,0-0.8,0l-0.5,0l-0.8-0.1
	l-0.4-0.3l-0.5-0.5l0-0.4c0-0.2,0-0.4,0-0.6l0.2-0.7c0-0.2,0-0.3,0-0.5l-0.2-0.4L42.2,63l-0.7,0L40.9,63l-0.6,0.2L40,62.9l0.3-0.3
	v-0.2c0-0.1,0-0.2,0-0.3l0.1-0.3l0.2-0.5c0-0.2,0-0.4,0-0.6l0.3-0.2l0.1-0.4L40.8,60L40,60l-0.5,0.1l-0.2,0.4L39,61l-0.2,0.5l-0.4,0
	l-0.6,0.2l-0.6,0.1l-0.3-0.4l-0.5-0.3l-0.2-0.5l-0.3-0.6l-0.2-1l0-0.7l0.3-0.5l0.2-0.6l-0.2-0.7l0.5-0.6l0.4,0l0.4-0.3l0.4-0.4
	l0.5,0.1l0.4,0.1l0.3-0.1l0.2,0.4c0.2,0,0.3,0,0.5,0l0.4,0l-0.1-0.3L40,55l0.6,0l0.4,0l0.7,0.1l0.3,0.4c0.1,0,0.2,0,0.2,0l0.2-0.2
	l0.2-0.1l0.3,0.3l0.3,0.4c0,0.2,0,0.3,0,0.5l0.2,0.3l0.1,0.3l0.2,0.2l0.1,0.3l0.3,0.2l0,0.4l0.3,0.1l0.2-0.2l0.1-0.4L44.5,57
	l-0.1-0.7l-0.3-0.6c0-0.3,0-0.5,0.1-0.9c0-0.1,0.1-0.3,0.2-0.4l0.3-0.6l0.5-0.2l0.5-0.4l0.5-0.3l0.5-0.2l0.1-0.3l0.4-0.2l-0.3-0.6
	l-0.2-0.3l0.1-0.3l-0.2-0.3l0.4-0.2l0.3,0.4l0.2-0.4l0.2-0.4l0.2-0.2l0.2-0.8c0.2,0,0.5,0,0.7,0l0.4-0.3l0.5,0l-0.1-0.3l0-0.6
	l0.3-0.5h0.4l0.1-0.3l0.5,0l0.5-0.3l0.3-0.4c0.8,0,0.8,0,1.2,0.1c0,0-0.1,0.1-0.2,0.2c-0.2,0-0.4,0-0.7,0c-0.1,0.1-0.3,0.2-0.4,0.3
	c0,0.1,0,0.3,0.1,0.4l0.3,0.1l0.3-0.2l0.2-0.2l0.4-0.1l0.4-0.2l0.4-0.1l0.3-0.4l0.3-0.3l0-0.3L54,45.8l-0.3,0.5l-0.5,0l-0.5-0.2
	l-0.5-0.4l-0.3-0.6l0.4-0.3l-0.1-0.5l-0.6,0L51,44.5l-0.7,0.4l-0.7,0.7l-0.6,0.4l0.2-0.4l0.3-0.4l0.2-0.2l-0.6-0.1
	c0.2,0,0.5,0,0.7,0l0.2-0.3l0.4-0.3l0.5,0l0.2-0.4l0.4-0.1c0.2,0,0.4,0,0.6,0l1.1,0l0.5,0.1l0.4,0l0.4-0.3l0.3-0.4l0.7-0.1l0.3-0.1
	l0.2-0.2l-0.2-0.2l0.1-0.2l0-0.4l-0.5-0.1l-0.1-0.2c-0.2,0-0.3,0-0.5,0l-0.4,0.2L54,42l-0.2-0.1l0.1-0.3l0.4-0.2l0.5-0.1l0.2-0.2
	l-0.4,0L54.3,41l-0.5-0.1l-0.3-0.3l-0.4-0.3l-0.2-0.2l0.2,0l0-0.2l-0.4-0.4l-0.4-0.4l-0.6-0.7L51.6,38l-0.3,0.4c0,0.1,0,0.2,0,0.4
	L51,39l-0.2,0.3l-0.4,0L50.3,39L50,38.8l-0.4,0.1l0.1-0.4c0-0.2,0-0.4,0-0.6l0-0.3l-0.4,0L49,37.4l-0.3-0.3l-0.5-0.3L48,36.9l-0.4,0
	l-0.2-0.1c-0.2,0-0.3,0-0.5,0L46.6,37l0.2,0.3l-0.1,0.4l0,0.3l0.1,0.4c-0.1,0-0.2,0-0.3,0l0,0.4l-0.2,0.2l0.2,0.2l0.3,0.3l0.1,0.5
	c0,0.2,0,0.4,0,0.5l-0.3,0.4L46.3,41l-0.5,0.1l0.3,0.5c0,0.2,0,0.4,0,0.6l0.1,0.4L46,42.8l-0.3,0.4l-0.6,0.1l-0.3-0.5l-0.3-0.4
	c0-0.1,0-0.2,0-0.4l0-0.5l0.1-0.4L44,40.8l-0.5,0l-0.2-0.2l-0.6-0.2l-0.2-0.3L42.2,40l-0.4-0.3L41,39.8l-0.1-0.3l-0.1-0.6l-0.3-0.2
	l-0.1-0.2l0.3-0.7l0.5-0.5l0.5-0.5l0.4-0.2l0.4-0.2l0-0.3L42.1,36l-0.4-0.2l0.5,0.1l0.4,0.1l0.2,0l0.1-0.3l0.3,0.1l0.2,0l0.1-0.2
	l0.2-0.1l0.2-0.3l-0.3,0l-0.3,0l-0.1-0.2L43,34.9l0.3,0l0.4,0.1l0.3,0.1l0.3-0.1l0.3-0.2l-0.1-0.2c0.1,0,0.2,0,0.3,0l0.1,0.2
	L44.5,35l-0.2,0.4c0,0.2-0.1,0.3-0.1,0.5l-0.3,0.1l0,0.2l0.3,0c0,0.1,0,0.1,0,0.2c0.1,0,0.3,0,0.4,0l0.2-0.2l0.4,0l0.2,0l0.2,0.1
	c0.1,0,0.2,0,0.3,0L46,36l-0.3-0.1l-0.1-0.3l-0.4,0L45,35.3l-0.3-0.1c0-0.1,0-0.1,0-0.2l0.2,0.1l0.1-0.1l0-0.2c0.1,0,0.2,0,0.3,0
	l0.2-0.2l0.3-0.2l0.1-0.2L46,34l-0.1-0.3l0.3,0l0.1-0.2l-0.1-0.2l-0.2-0.1l-0.3-0.2c0.1,0,0.2,0,0.4,0l0.1-0.1l0.2,0l0.2,0.1l0.3,0
	l0.3-0.1l-0.2-0.2l0.2,0l0.2,0.2l0.3,0l0.1,0.2l0.2,0l0.1,0.2l0.2,0.1l0.1,0.2l0.2,0.1l0.2,0.2l0,0.3l-0.3,0.3l-0.3,0.3l0.1,0.3
	l-0.5,0.1l-0.3-0.1c-0.1,0-0.2,0-0.3,0l-0.4,0.3c0,0.1,0,0.2,0,0.3l0.4,0.1l0.3,0l0.1-0.2l0.2-0.1l0.2,0.1l0.4,0.1l0.4,0.4l0.1,0.2
	l0.3,0.3h0.4l0.4,0.4l0.6,0l0.4,0.2l0-0.2l-0.7-0.5L50,36.3l-0.1-0.2l0.4,0.2l0.7,0.3l0.4,0.2c0-0.1,0-0.2,0-0.3l0.2-0.3L51.1,36
	L51,35.6l-0.5-0.2L50,34.9l0.2-0.2l0.1-0.1l0.7,0.5l0.3,0.3l0.3,0l0-0.4l0.3-0.1l0-0.2c0.1,0,0.2,0,0.2,0l0.1-0.2l-0.1-0.2
	c-0.2,0-0.3,0-0.5,0c0,0,0-0.1,0-0.1l-0.3-0.2l-0.2,0l-0.3-0.1c-0.1,0-0.1,0-0.2,0l-0.1-0.2l-0.1-0.2l-0.4,0l-0.2,0
	c0-0.1,0-0.2,0-0.3c0.1,0,0.2,0,0.2,0l0.1-0.1l-0.3-0.1l0-0.1l0.2,0l-0.2-0.2l-0.3-0.1l0.1-0.2l-0.3-0.1l-0.3,0l0-0.1l-0.2,0l-0.1,0
	l0.2-0.1l-0.2-0.1l-0.3,0.1l-0.2-0.2l0-0.1l-0.2,0l0-0.1l-0.3-0.1c-0.1,0-0.2,0-0.4,0l-0.1,0.1l-0.2,0l-0.2,0l-0.1,0.1l-0.2,0l0-0.2
	l0.2-0.2l-0.1-0.2l0-0.2c-0.1,0-0.2,0-0.3,0l-0.2,0.1l-0.2,0l-0.2,0.1l-0.1,0.2l0.1,0.2l-0.2,0.1l0.1,0.3l-0.2,0l-0.1-0.3l0.1-0.3
	l0.1-0.2l0.2-0.2l0.3-0.2c-0.1,0-0.2,0-0.3,0l-0.3,0l-0.4,0.2l-0.4,0.4l-0.2,0.5l0.3,0.1l0.2,0l0,0.2l-0.2,0l-0.3,0.1l0.1,0.2
	c0.1,0,0.2,0,0.3,0l0.2-0.1l0.1,0.2l0.3,0.1l-0.3,0.1l-0.1,0.2l0.1,0.2l-0.4,0.4L44.7,34l-0.3,0.2l-0.2-0.1l0-0.4l0.2-0.2l-0.2-0.3
	l-0.4,0.3L43.6,33l-0.1-0.1l0.1-0.2l0.1-0.3l-0.1,0l0.1-0.2l-0.1-0.2l-0.3,0L43.2,32l-0.1,0l-0.3,0.2l0,0.2l-0.1,0.1l0.1,0.3
	l0.2,0.2l-0.2,0.2l-0.2-0.1l-0.1,0.3l0.3,0l0.4-0.2c0,0.1-0.1,0.2-0.1,0.3l-0.6,0.3L42,34.2L41.8,34l0.2-0.3c-0.1,0-0.1,0-0.2,0
	l0.1-0.3c0.1,0,0.1,0,0.2,0l0.2-0.4l-0.3-0.2l-0.3,0.3l-0.3,0.1l0.2,0.3l-0.3,0.2l-0.2,0.2l-0.8,0l-0.3-0.2L40,33.7l-0.2-0.2
	l-0.4,0.2L39,33.7L38.9,34l-0.4,0.4l0.2-0.5l-0.2-0.2L38,33.8l-0.7-0.1l0.1-0.1l0.4-0.1l-0.1-0.3h-0.3L37,32.8l0.1-0.2l-0.2-0.1
	l-0.2,0l-0.3,0.2l-0.2,0l0.3-0.4L36,32.7l-0.1-0.1l0.4-0.4l-0.1-0.1l-0.4,0.3l-0.3,0.2l-0.2,0l-0.4,0.1l-0.5,0.2l0.6-0.3l0.3-0.1
	l0.3-0.1l0.2-0.1l0,0l-0.4,0.1l-0.5,0.2h-0.2c0,0-0.1,0-0.1,0l-0.6,0.2l-0.2-0.1l0.2-0.3l-0.3-0.1l0.1-0.2l-0.1-0.1l-0.3,0.1
	c4.2-2.4,8.9-3.8,13.9-4.1l0,0l0,0l0,0l-0.1,0.1l0,0c0,0,0,0,0,0.1c0.1,0,0.1,0.1,0.2,0.1l0.1-0.1l0.1,0l0.1,0l-0.1,0.1l-0.1,0.1
	l-0.1,0.1c0.2,0,0.2,0,0.4-0.1l0.1,0c0,0,0.1,0,0.1,0l0.1-0.1l0.1-0.1l0,0c0,0,0,0,0.1,0l0.1,0l-0.1,0c-0.1,0-0.1,0.1-0.2,0.1l0.1,0
	l0,0l0,0l0,0.1c0,0-0.1,0-0.1,0l-0.1,0l-0.1,0c-0.1,0-0.1,0-0.2,0h-0.1l-0.1,0l0,0.1l0.1,0l0,0l0,0.1l0.1,0l-0.1,0c0,0-0.1,0-0.1,0
	c-0.1-0.2-0.1-0.2-0.2-0.2l-0.1,0l-0.1,0.1l0,0.1l0,0.1l0.1,0.1l0.1,0.1c0,0,0.1,0,0.2,0c0,0-0.1,0-0.2,0.1c0,0,0,0.1,0,0.1
	l-0.1-0.1l-0.1,0l-0.1,0l-0.1,0L46.7,29c0,0,0,0.1-0.1,0.1l0,0.1l0.1,0l0.2,0l0.1,0l-0.2,0.1l0,0.1c0.1,0,0.2,0,0.4-0.1l-0.1,0.1
	L47,29.4l-0.1,0c-0.1,0-0.1,0-0.2-0.1c0,0,0-0.1-0.1-0.1c0,0,0,0-0.2,0c-0.1,0.2-0.1,0.2-0.3,0.3L46,29.7l0,0.2l0.1,0.1
	c0.1,0,0.2-0.1,0.2-0.1c0.1,0,0.2,0.1,0.3,0.1c0.1,0,0.1-0.1,0.2-0.1c0,0,0,0,0.3,0c0,0,0.1,0,0.1,0c0,0,0,0-0.1,0.1l0,0
	c0.1,0,0.1,0,0.2,0c0,0,0.1,0,0.1,0c0.3-0.1,0.3-0.1,0.4-0.2l0-0.1l-0.1,0.1v-0.1l0.1,0l0.1-0.1l0-0.1h0.1c0.2,0,0.2,0,0.2,0
	c0.1-0.1,0-0.1,0-0.2l0,0c0,0,0.1,0,0.1,0c0,0,0,0,0.1,0c0,0,0-0.1,0-0.1c-0.1,0-0.1-0.1-0.2-0.1L48,28.9l-0.1,0v-0.1
	c0,0,0.1,0,0.1,0c0,0,0,0,0.1-0.1c0,0,0.1,0,0.1,0l0,0.1c0.2,0,0.2,0,0.3-0.1l-0.1-0.1l0.1,0l0,0.1l0.1,0l0.1,0l0-0.1l-0.1,0h0.2
	l0-0.1l0.1,0c0.1-0.1,0.2-0.1,0.2-0.2l0.1,0l0,0l-0.1-0.1c0,0-0.1,0.1-0.1,0.1c0,0,0,0-0.2,0v-0.1l0.1,0h0.1c0,0,0.1,0,0.1,0
	c0,0,0.1,0,0.1-0.1c0.1,0,0.1,0,0.2,0c0,0,0.1,0,0.1,0l0,0l0,0l0,0h0l0,0l0,0l0,0l0,0l0,0l0,0l0,0h0h0l0,0l0.1,0l0,0l0,0l0,0h0l0,0
	l0,0l0,0l0,0l0,0l0,0l-0.1,0l0,0h0l-0.1,0l0,0l0,0l0,0l0,0l0,0l0,0l0,0l0,0v0l0,0l0,0l0,0l0,0l0,0l0,0l0,0c0,0,0.1,0.1,0.1,0.1
	c0,0,0,0-0.1,0l0,0l0,0c0,0-0.1,0-0.1,0l0,0l-0.1,0.1l0,0l0,0l0,0h0l0,0l0,0l0,0l0,0l0,0l0,0h0l0,0l0,0v0l0,0c0,0,0,0,0.1,0l0,0l0,0
	h0l0.1,0l0,0l0.1,0l0,0.1l0,0l0,0l0,0c0,0,0,0,0,0.1l0,0.1l0,0l-0.1,0h0l-0.1,0l0,0h-0.1l-0.1,0c0,0-0.1,0-0.1,0l0,0c0,0,0,0,0,0.1
	l0,0c0,0-0.1,0-0.1,0c-0.1,0-0.1,0-0.2,0l0,0l0,0l0,0l0,0v0l0,0l0,0l0,0h-0.1c0,0.1,0,0.1,0.1,0.2c0.1,0,0.1,0,0.2,0.1H49l0.1,0l0,0
	c0,0,0.1,0,0.1,0h0.1l0,0l0,0c0,0,0.1,0,0.1,0l0.1,0c0,0,0,0,0,0l0,0c0,0,0,0.1,0,0.1l0,0l-0.1,0.1h0l0,0h0l0,0l0,0h0c0,0,0,0,0,0
	l-0.1,0h0c0,0-0.1,0-0.1,0h0l0,0.1c0,0-0.1,0-0.1,0l0,0l0,0l0,0c0.1,0,0.2,0.1,0.3,0.1l0,0l0,0v0l0,0l0.1,0l0,0l0,0l0,0l0,0l0,0l0,0
	l0.1,0l0,0l0,0l0.1,0h0l0,0l0,0c0,0,0-0.1,0-0.1h0.1c0,0,0.1,0,0.1,0l0,0l0,0l0,0l0,0l0,0h0.1l0,0c0,0,0.1,0,0.1,0l0,0l0,0l0,0l0,0
	h0l0,0l0,0c0,0,0.1,0,0.1,0l0,0h0.1l0.1,0h0c0,0,0.1,0,0.1,0l0,0l0,0l0,0c0,0,0.1,0,0.1,0l0,0c0,0,0.1,0,0.1,0l0.1,0h0l0.1,0.1
	l0.1,0c0,0,0,0,0.1,0l0.1,0.1c0,0,0.1,0.1,0.1,0.2l0,0l0,0l0,0l0,0h0l0,0l0,0l0,0l0.1,0.1l0,0c0,0,0.1,0,0.1,0.1l0,0l0,0l0,0
	c0,0,0,0,0.1,0.1c0,0,0.1,0.1,0.1,0.1l0,0l0.1,0.1c0,0,0,0,0,0.1c0,0,0,0,0.1,0.1c0,0,0,0.1,0.1,0.1c0,0,0,0.1,0,0.1
	c0,0,0.1,0,0.1,0c0,0,0,0.1,0,0.1l0,0c0,0.1,0.1,0.1,0.1,0.2c0,0-0.1,0-0.1,0c0,0,0,0.1,0.1,0.1c0,0.1,0.1,0.1,0.2,0.1
	c0,0,0,0,0.1,0l0.1,0c0.1,0,0.2,0,0.2,0l0-0.1c0.3-0.2,0.4,0.2,0.6,0.2h0h0h0l0,0c0.2,0.1,0.3,0.2,0.3,0.2l0,0.1c0,0-0.1,0-0.1,0
	l-0.1,0l-0.1,0h0c-0.2,0-0.5-0.2-0.7-0.1c0.1,0.1,0.2,0.1,0.3,0.2l0,0.1l-0.1,0c0,0-0.2,0.1,0,0.2c0.1,0.1,0.3,0.1,0.5,0.2l0.1,0
	c0,0,0-0.1,0.1-0.1c0.1,0,0.1,0,0.2,0c0-0.1-0.1-0.1-0.1-0.2c-0.1,0-0.1,0-0.2,0l0,0c0,0-0.1,0-0.1,0l0-0.1c0,0,0.1,0,0.1,0
	c0.2,0.1,0.2,0.1,0.3,0.1c0,0,0.1,0,0.2,0c0.1,0,0.1,0,0.2,0.1l0,0l0,0.1l0,0.1l0,0.1c0,0,0,0,0,0c0.2,0.1,0.2,0.1,0.2,0.2
	c0,0.1,0.1,0.1,0.1,0.2c-0.1,0-0.1,0-0.2,0l-0.1,0c0,0,0,0.1,0,0.1h-0.1c0,0,0,0-0.1,0l-0.1,0l-0.1,0c0,0.1,0.1,0.2,0.1,0.3
	c0,0-0.1,0-0.1,0c0,0.1,0,0.1-0.1,0.1l0,0.1l0,0.1c0,0,0,0,0,0.1c0.1,0.2,0.4,0.1,0.5,0.4c0,0-0.1,0-0.1,0.1c0,0,0.2,0.5,0.5,0.4
	l0-0.1h0.1c0,0,0,0,0.1,0c0.1,0,0.1,0,0.1,0.2c0,0,0,0-0.1,0l0,0c0.3,0.5,0.3,0.5,0.4,0.5c0.1-0.1,0.1-0.2,0.1-0.2c0,0,0.1,0,0.1,0
	c0,0.1,0.1,0.2,0.1,0.3c0,0.1-0.1,0.1-0.1,0.1c-0.2,0.3,1.8,1.8,2.1,1.8c0,0,0,0,0.1,0c0,0,0.1,0,0.1,0h0c0.4,0.1,1.1,0.9,1.3,0.3
	l0-0.1c0,0,0-0.1-0.1-0.1c-0.1-0.2,0-0.5-0.1-0.7c-0.1-0.2-0.3-0.3-0.4-0.5l0-0.1c0,0,0.1,0,0.1,0c0,0,0,0,0.1,0c0,0,0.1,0,0.1,0
	c-0.1-0.2-0.1-0.2-0.1-0.3h0.1l0-0.1c-0.1-0.1-0.1-0.2-0.2-0.4c0.1-0.3-0.3-0.3-0.3-0.4c0.2,0,0.2,0,0.2-0.1c0-0.1-0.1-0.2-0.1-0.2
	c0.1,0,0.2,0,0.3,0c-0.1-0.1-0.1-0.2-0.2-0.2c0.1,0,0.1,0,0.2,0c0.1,0.2,0.1,0.2,0.2,0.3c0.1,0,0.1,0,0.2,0c0.1-0.1,0-0.2,0.1-0.3
	l0.1,0c0.1,0,0.1,0,0.2-0.1l0-0.1c0-0.1,0-0.1,0-0.2c0,0,0-0.1,0-0.1l0,0c0-0.1,0-0.1-0.1-0.2l0.1-0.1c0,0,0,0-0.1-0.1l0-0.1l0,0
	c0-0.1,0-0.1-0.2-0.2l0,0c0,0,0,0,0.1,0l0,0l0,0l0,0l0,0l0,0l0.1,0c0.4,0.1,0.4,0.1,0.6,0.1c0-0.1,0-0.2,0-0.3c0,0,0.1,0,0.1,0
	c0,0,0.1-0.1,0.1-0.1l0-0.1c0,0,0,0,0,0c0-0.1-0.1-0.2-0.1-0.4c0.1,0,0.1,0,0.2,0c0-0.1-0.1-0.2-0.1-0.2l-0.1,0l0,0.1l0,0.1
	c0,0,0,0-0.1,0c-0.1,0-0.2-0.1-0.3-0.1l0,0c-0.2,0-0.4,0-0.5-0.2c0,0-0.1-0.1-0.1-0.1h0c0.1,0,0.1,0,0.2,0c0,0,0-0.1-0.1-0.1
	c0.2,0.1,0.4,0.3,0.6,0.3l0.1,0c0,0-0.1-0.1-0.1-0.1c0.1,0,0.1,0,0.2-0.1c0,0-0.7-0.5-1.4-0.7l0-0.1c0.2,0.1,0.2,0.1,0.3,0.1
	c0,0,0,0,0.1,0c-0.1-0.1-0.2-0.1-0.3-0.2c0,0,0,0-0.1-0.1c-0.2-0.1-0.3-0.2-0.4-0.2l0,0.1c0,0-0.1,0-0.1,0c0,0-0.1-0.1-0.1-0.1
	c0,0,0,0-0.2-0.1l0,0c0,0,0.1,0,0.1,0c0.1,0,0.1,0.1,0.2,0.1c0,0,0.1,0,0.1,0l0-0.1c0,0,0,0,0.1,0c0,0,0.1,0,0.1,0
	c-0.1-0.1-0.2-0.2-0.5-0.3l0,0.1c-0.2,0-0.2-0.1-0.2-0.1c0.1,0,0.1,0,0.2,0l-0.1-0.1l0.1,0c0,0,0,0,0.1,0c-0.3-0.1-0.6-0.2-0.8-0.4
	l0,0l0.1,0c-0.1,0-0.2-0.1-0.3-0.1c-0.3-0.1-0.6-0.2-0.9-0.3c0,0,0,0-0.1,0l-0.1,0l0.1,0c0,0,0,0,0.1,0c0.1,0,0.1,0,0.2,0.1l0,0
	c0.2,0.1,0.2,0.1,0.5,0.2l0,0c-0.2-0.1-0.4-0.2-0.7-0.3c0,0-0.1,0-0.1-0.1c0,0,0,0-0.1,0c-0.1,0-0.1,0-0.2-0.1l-0.1,0c0,0,0,0-0.1,0
	c-0.1,0-0.2-0.1-0.3-0.1l0.1,0l0,0c0,0-0.3-0.1-0.4-0.1c0,0,0.1,0,0.1,0.1c-0.1,0-0.3-0.1-0.4-0.2c0,0,0,0-0.5-0.2l0.1,0
	c-0.2-0.1-0.2-0.1-0.2-0.1l0,0c-0.3-0.1-0.6-0.3-0.9-0.4l-0.1,0c4.6,0.5,9,2,12.9,4.4l0,0c0,0,0.1,0.1,0.1,0.1l0,0
	c0.1,0.1,0.1,0.1,0.2,0.1l0,0l0.1,0.1l0,0c-0.1-0.1-0.1-0.1-0.1-0.2c0.1,0.1,0.3,0.2,0.4,0.3c0.5,0.4,1.4,1.1,1.4,1.1l-0.1-0.1
	c0.1,0.1,0.2,0.3,0.4,0.4c0,0,0.1,0,0.1,0c0.1,0,0.1,0,0.6,0.7c0,0-0.1,0-0.1,0c0,0-0.1,0-0.1,0l0.1,0.1c0.1,0,0.1,0.1,0.2,0.1l0,0
	l0,0h0h0h0c0,0,0,0,0.4,0.5l0,0c0.1,0.3,0.5,0.5,0.7,0.7l0,0l0.1,0.1c0.1,0,0.1,0.1,0.2,0.2l0.1,0c0.4,0,0.2,0.6,0.7,0.6
	c0.2,0.2,0.2,0.2,0.2,0.2c0.2,0,0.3,0,0.4-0.1c-0.1-0.1-0.1-0.1-0.2-0.2l0,0l0,0c0-0.1-0.1-0.1-0.1-0.2c0,0,0.1,0,0.5,0.4
	c0.1,0,0.3-0.1,0.4-0.1c0,0,0,0,0,0c-0.1,0-0.2,0.1-0.4,0.1c0.1,0.1,0.2,0.2,0.3,0.3l0,0c0.2,0.2,0.2,0.2,0.3,0.3
	c0.2,0.2,0.2,0.2,0.2,0.2l0.1,0.1l0.1,0.1c0.1,0.1,0.1,0.1,0.4,0.3c0.1,0.1,0.2,0.2,0.3,0.3l0,0c0.1,0.1,0.1,0.1,0.2,0.2
	c0,0,0.1,0,0.1,0c-0.3-0.3-0.3-0.3-0.3-0.4l0,0l0,0c0,0,0.1,0,0.1,0c0,0,0-0.1-0.1-0.1c0.3,0.4,0.6,0.7,0.9,1.1c0,0,0,0,0,0l0,0.1
	l0,0.1l-0.1,0c-0.1-0.1-0.1-0.1-0.2-0.3c0,0-0.1,0-0.1,0l0,0.1c0,0-0.1,0-0.1,0c0,0.1,0,0.1,0.2,0.3l0,0c-0.1,0-0.1,0-0.3-0.2l0,0
	l0,0c0,0-0.1-0.1-0.1-0.1c0,0-0.1-0.1-0.1-0.1c0-0.1,0-0.1,0-0.1c0,0,0,0,0.2,0.1c0-0.1-0.4-0.6-0.6-0.8c0,0-0.1,0-0.1,0
	c0,0.1,0,0.1,0.1,0.3l0,0l0,0c-0.1-0.1-0.1-0.1-0.2-0.3c-0.1-0.1-0.1-0.1-0.1-0.2l-0.1,0c-0.4-0.4-0.4-0.4-0.6-0.6
	c0,0.2,0.2,0.3,0.2,0.5c0,0,0.1,0.1,0.1,0.1c0.1,0.1,0.1,0.1,0.1,0.1c0.2,0.3,0.5,0.6,0.7,0.9c0,0,0.1,0.1,0.1,0.1
	c0,0.1,0.1,0.1,0.1,0.2c0.1,0.1,0.2,0.2,0.3,0.3c0.1,0.1,0.1,0.1,0.1,0.2l0,0l0,0.1l0,0c0,0-0.1,0-0.1,0c0,0,0,0.1,0,0.1l0,0.1
	c0.1,0.2,0.1,0.2,0.2,0.3h-0.1l0,0l0,0c0,0.1,0,0.1,0.1,0.2l0.1,0.1c0.1,0.1,0.1,0.2,0.2,0.3c-0.1,0.1-0.1,0.1,0,0.4
	c0,0.1,0,0.1,0,0.1l-0.1,0c0.1,0.2,0.2,0.4,0.3,0.5c0,0-0.1,0-0.1,0.1c0,0.1,0.1,0.2,0.1,0.3c0,0-0.1,0-0.1,0l-0.1,0
	c0,0-0.1,0-0.2,0c0,0,0-0.1-0.1-0.1c0,0-0.1-0.1-0.1-0.1c0,0.1,0.1,0.2,0.2,0.3c0.1,0,0.1,0.2,0.2,0.2l0.1,0.1c0,0,0,0.1,0.1,0.1
	c-0.2,0.1-0.5-0.1-0.5-0.1c0,0-0.1,0.1-0.1,0.1c0,0.1-0.1,0.2,0.1,0.3l0,0c0.2,0.2,0.3,0.2,0.3,0.2l0.1,0c0.2,0.1,0.3,0.3,0.5,0.4
	c0.1,0.2,0.2,0.3,0.3,0.5c0.6,0.8,0.6,0.8,0.9,1.6c0,0,0,0.1,0,0.2c-0.1,0-0.1,0-0.1,0c-0.2-0.1-0.4-0.1-0.5-0.2c-0.2,0-0.3,0-0.5,0
	c-0.2,0-0.2,0-0.3-0.1h0l0,0.1c0,0,0,0.1,0,0.1c-0.1,0-0.2,0.1-0.3,0.1l0,0.1c0.3,0.3,0.3,0.7,0.6,1c0.1,0.2,0.2,0.4,0.2,0.6
	c0.1,0.3,0,0.6,0.2,0.9c0,0,0.1,0.1,0.1,0.1c0,0,0,0.1,0,0.1l0,0.1c0,0.1,0,0.2,0.1,0.5c0.1,0,0.1,0,0.2,0c0,0,0.1,0,0.1,0
	c0.1,0,0.1,0.1,0.2,0.1c0,0,0.1-0.1,0.1-0.1c0.1,0.1,0.2,0.1,0.3,0.2c0.1,0.1,0.1,0.3,0.2,0.4c0,0,0-0.1,0-0.1l-0.1,0l0-0.1
	c0.3,0,0.1-0.5,0.4-0.5c0.2-0.2,0.1-0.6,0.4-0.7c0-0.1-0.1-0.2-0.1-0.3c-0.2-0.4-0.2-0.4-0.3-0.9c0,0,0-0.1,0-0.2
	c0,0,0.1-0.1,0.1-0.1c0-0.2,0-0.2,0.1-0.4c0,0,0.1,0,0.1,0c0-0.1-0.1-0.2-0.1-0.3c0,0,0-0.1,0-0.1c-0.3-0.5-0.4-0.8-0.1-0.7l0,0h0h0
	l0,0h0h0h0c0.1,0,0.1,0.1,0.2,0.1c0.1,0,0.1,0,0.1,0l0-0.1c-0.1-0.1-0.1-0.1-0.1-0.4c0,0,0,0,0.1,0l0.1,0c0-0.2,0-0.2-0.1-0.3
	c0.5,0.1,0.5,0.6,0.8,0.9c0.1,0.1,0.1,0.1,0.2,0.2c0.1,0.1,0.3,0.3,0.5,0.6V50c-0.1,0-0.1,0.1-0.1,0.2c-0.2-0.3-0.2-0.3-0.4-0.3
	c0,0.2-0.2,0.3-0.2,0.5c-0.1,0-0.3,0-0.4,0.1c0,0.4,0,0.4,0,0.6c-0.1,0-0.1,0-0.2,0c0,0-0.1,0.1-0.1,0.1l0,0c-0.1,0-0.1,0-0.2,0
	c0,0,0,0,0,0c-0.2,0.1-0.3,0-0.5-0.1c0,0-0.1,0-0.1-0.1c0,0.3,0.1,0.6,0.1,0.9c-0.1,0-0.3,0-0.4,0c0.1,0.3,0.2,0.6,0.2,0.9
	c-0.1,0-0.3,0-0.4,0.2c0.1,0.5,0.1,0.9,0.2,1.4c0,0.1,0,0.3,0.1,0.4c-0.1,0-0.2,0-0.4,0c0,0.3-0.1,0.6-0.2,0.9
	c-0.9,0.6-0.1,1.6-0.8,2.3l-0.1,0c0,0-0.1,0-0.2,0c0,0.1,0,0.1-0.3,1.7c0,0.1,0,0.3,0,0.4c0.2,0,0.4,0,0.6,0c0,0.1,0,0.1,0.1,0.2
	c-0.1,0.4-0.1,0.4-0.1,1.8c0,0.1,0,0.2,0,0.4c-0.1,0.2-0.1,0.2-0.3,0.5c0,0.3,0.1,0.5,0.1,0.8c0,0.1,0,0.1,0,0.2
	c0,0.5,0.1,0.6,0.4,1.1c0.1,0,0.1,0,0.2,0c0.1,0.2,0.1,0.4,0.1,0.6c0.1,0,0.1,0,0.2,0c-0.1,0.9-0.1,0.9,0.6,1.3c0,0.2,0,0.4-0.1,0.6
	c0.3,0.2,0.4,0.6,0.8,0.7c0.1-0.2,0.2-0.3,0.3-0.5c0.1,0,0.3,0,0.4,0l0.1,0c0.1,0,0.3,0,0.4,0c0,0.1,0.1,0.1,0.1,0.2
	c0.3,0,0.4-0.3,0.6-0.5v6.6c0,0.3,0.1,0.6,0.1,0.9C77.7,78.1,75.7,81.1,73.1,83.8L73.1,83.8z M48.1,28C48.1,28,48.1,28,48.1,28
	L48.1,28C48.1,28,48.1,28,48.1,28z M49.9,28C49.9,28,50,28,49.9,28L49.9,28L49.9,28L49.9,28l0.2,0.1l0,0l-0.1,0
	C50,28.1,50,28.1,49.9,28L49.9,28C49.9,28,49.9,28,49.9,28z M50.1,28C50.2,28,50.2,28,50.1,28L50.1,28l0.1,0l0.1,0l0,0h0l0,0l0,0
	l0,0l0,0L50.1,28L50.1,28L50.1,28L50.1,28L50.1,28L50.1,28z M50.5,28C50.5,28,50.6,28,50.5,28L50.5,28L50.5,28L50.5,28L50.5,28
	L50.5,28z M52.5,28.1C52.5,28.1,52.5,28.1,52.5,28.1c0.2,0,0.3,0.1,0.4,0.1C52.7,28.2,52.6,28.2,52.5,28.1z M53.2,28.2
	c0.1,0,0.1,0,0.2,0C53.3,28.2,53.3,28.2,53.2,28.2C53.2,28.2,53.2,28.2,53.2,28.2z M77.8,44.8L77.8,44.8c0.5,0.4,0.7,0.7,0.9,0.9
	c0.2,0.3,0.3,0.7,0.5,1c0,0,0,0,0,0c0,0,0,0,0,0c-0.2-0.1-0.7-0.8-0.7-0.8l0,0c-0.1-0.1-0.1-0.1-0.2-0.3l-0.1,0
	c-0.1-0.1-0.1-0.1-0.2-0.2l0-0.1l0-0.1l0,0C77.9,45,77.8,45,77.8,44.8L77.8,44.8z M86.9,36.7c-0.4,0-0.7,0.3-0.7,0.7v4.3
	c-0.7,0.5-1.2,1.3-1.3,2.2h-2.3c-1.2,0-2.3,0.6-2.9,1.6c-1.7-3.3-3.9-6.3-6.6-8.9c-6.4-6.2-14.8-9.6-23.7-9.6
	c-9.3,0-18,3.7-24.4,10.3c-2.4,2.4-4.3,5.2-5.9,8.1c-0.6-0.9-1.7-1.6-2.9-1.6h-2.3c-0.1-0.9-0.6-1.7-1.3-2.2v-4.3
	c0-0.4-0.3-0.7-0.7-0.7h-0.3c0-0.1,0-0.2,0-0.2c0-0.3,0.1-0.5,0.2-0.8c0.4-2.1,1.1-4.2,2.1-6.2c1-2,2.3-3.9,3.8-5.5s3.3-3.1,5.1-4.3
	c1.8-1.2,3.8-2.2,5.8-3c2-0.8,3.9-1.4,5.8-1.9c1.9-0.5,3.7-0.8,5.4-1c1.7-0.2,3.3-0.3,4.6-0.4c1.1-0.1,2.1-0.1,3-0.1h3.8
	c0.9,0,1.9,0,3,0.1c1.4,0.1,3,0.2,4.6,0.4c1.7,0.2,3.5,0.5,5.4,1c1.9,0.5,3.9,1.1,5.8,1.9c2,0.8,3.9,1.8,5.8,3
	c1.8,1.2,3.6,2.7,5.1,4.3s2.8,3.5,3.8,5.5c1,2,1.7,4.1,2.1,6.2c0.1,0.3,0.1,0.5,0.2,0.8c0,0.1,0,0.2,0,0.2L86.9,36.7L86.9,36.7z"/>
</svg>
