<svg version="1.1" id="Слой_1" xmlns="http://www.w3.org/2000/svg" xmlns:xlink="http://www.w3.org/1999/xlink" x="0px" y="0px"
	 viewBox="0 0 32 32" style="enable-background:new 0 0 32 32;" xml:space="preserve">
<path d="M27.7,19.5l4.3-0.3h0v-6.4l-4.3-0.3c-0.3-0.8-0.6-1.6-1-2.3L29.6,7l-4.5-4.5l-3.2,2.9c-0.7-0.4-1.5-0.7-2.3-1L19.2,0h-6.4
	l-0.3,4.3c-0.8,0.2-1.6,0.6-2.3,1L6.9,2.4L2.4,7l2.9,3.3c-0.4,0.7-0.7,1.5-1,2.3L0,12.8v6.4l4.3,0.3c0.2,0.8,0.6,1.6,1,2.3l-2.9,3.3
	l4.5,4.5l3.2-2.9c0.7,0.4,1.5,0.7,2.3,1l0.3,4.3h6.4l0.3-4.3c0.8-0.2,1.6-0.6,2.3-1l3.2,2.9l4.5-4.5l-2.8-3.3
	C27.1,21.1,27.4,20.3,27.7,19.5z M16,21.3c-3,0-5.3-2.4-5.3-5.3c0-2.9,2.4-5.3,5.3-5.3s5.3,2.4,5.3,5.3C21.3,19,19,21.3,16,21.3z"/>
</svg>
