<?xml version="1.0" encoding="utf-8"?>
<!-- Generator: Adobe Illustrator 24.2.0, SVG Export Plug-In . SVG Version: 6.00 Build 0)  -->
<svg version="1.1" id="Слой_1" xmlns="http://www.w3.org/2000/svg" xmlns:xlink="http://www.w3.org/1999/xlink" x="0px" y="0px"
	 viewBox="0 0 700 700" style="enable-background:new 0 0 700 700;" xml:space="preserve">
<style type="text/css">
	.st0{fill:#FF6836;}
	.st1{fill:#FFFFFF;}
</style>
<g>
	<path class="st0" d="M638.7,296.7C624.8,151.6,500.6,38,349.4,38C201.2,38,79,147,61.1,288c-31.8,31.2-49.9,76.6-49.9,128.9
		c0,114.3,65.1,173.1,116.1,172.9c11.3-2.4,21.8-6.3,32.2-11.9c46.2,50.8,113.7,82.9,189,82.9c79.6,0,150.6-35.9,196.8-91.9
		c8.9,4,17.9,6.9,27.5,8.9c51,0.2,116.1-54.5,116.1-160.8C688.9,368.1,670.7,325.7,638.7,296.7z"/>
	<path d="M348.5,670.8c-72.4,0-141.7-29.3-191.2-80.5c-8.9,4.2-18.1,7.3-27.9,9.4l-1,0.2l-1.1,0c-0.1,0-0.2,0-0.3,0
		c-24.8,0-51.3-12.2-72.8-33.6C20,532.1,1,479,1,416.9C1,364,18.9,316.7,51.5,283.2C71.8,137.4,199.3,27.9,349.4,27.9
		c75.3,0,147.4,27.5,202.9,77.5c54.2,48.8,88.3,114.9,96.1,186.5c32.7,31.2,50.7,75.5,50.7,125c0,55.8-17.7,104.1-49.9,136.2
		c-22.2,22.2-50.1,34.8-76.4,34.7l-1,0l-1-0.2c-7.9-1.6-15.4-3.8-22.6-6.6C498.2,638.2,425.8,670.8,348.5,670.8z M161.6,565.2
		l5.3,5.9c46,50.6,112.1,79.5,181.5,79.5c73.9,0,142.8-32.2,189-88.2l4.9-6l7.1,3.2c7.8,3.5,15.7,6.1,24.3,7.9
		c20.7-0.2,42.9-10.7,61.1-28.8c28.3-28.2,43.9-71.5,43.9-121.8c0-45.2-16.7-85.3-46.9-112.7l-2.9-2.6l-0.4-3.9
		C615,155.4,494.9,48.1,349.4,48.1c-141.1,0-260.8,103.7-278.3,241.1l-0.4,3.5l-2.5,2.5c-30.2,29.7-46.9,72.9-46.9,121.7
		c0,76.5,29.6,117.4,47.3,135c17.5,17.4,38.4,27.4,57.6,27.7c10.1-2.3,19.4-5.8,28.4-10.7L161.6,565.2z"/>
</g>
<circle class="st1" cx="349.8" cy="419.2" r="194.4"/>
<path d="M171.5,341.1c-11.9-14.9-27.2-23.9-44-23.9c-37.8,0-68.5,18.1-68.5,102c0,75.7,17.2,102,68.5,102c16.7,0,32.1-9,44-23.9
	V341.1z"/>
<path d="M527.9,341.1c11.9-14.9,27.2-23.9,44-23.9c37.8,0,68.5,18.1,68.5,102c0,75.7-17.2,102-68.5,102c-16.7,0-32.1-9-44-23.9
	V341.1z"/>
<path class="st1" d="M590.2,305.6c0.3-26.6-4.7-47.5-11.5-68.3c-64.2-197.9-403.3-199.3-455.5-0.6c-5.6,21.2-11.7,41.7-11.5,68.3
	l-5.8,10.5l0,207.6c0,14.6,36.7,15.3,36.8-0.3l0.1-207.5L132.3,305l0-27.1c-0.2-23.1,28-82.1,67.1-105.7
	c40-24.1,62.2-31.9,143.9-31.9c96,0,115.5,6.4,159.3,32.6c39.2,23.4,67.3,82.7,67.1,105.7l0,27.1l-10.7,10.2l0.1,207.5
	c0.1,15.6,36.8,15,36.8,0.3l0-207.6L590.2,305.6z"/>
<g>
	<path d="M527,495.1c-6.1-5-7.4-3.7-4.3-11.4c0.1-0.1-0.1-0.4-0.2-0.5c-8.5-3.1-14.6,2.3-16,8.1c-1.2-0.6-2.4-1-3.4-1.6
		c-1.1-0.7-2.4-2.6-3-2.4c-1.3,0.4-2.4,1.9-3.4,3c-1.3,1.5-2.5,3.1-3.9,4.8c-0.3-0.2-0.9-0.6-1.6-1.1c-0.4,0.6-0.9,1.1-1,1.6
		c-0.6,3.5-3.2,4.8-6.1,6c-4.5,1.9-8.9,3.7-13.3,5.9c-1.1,0.5-2.1,2.1-2.3,3.3c-1.6,7.5-1.4,15-1.3,22.6c0,1.3-0.7,2.5-1.3,4.5
		c0.6,0.2,1.7,0.8,2.8,0.7c1.8-0.1,3.5-0.7,5.3-1.1c5.6-1.5,11.4-2.6,16.8-4.7c3.2-1.2,6.2-1.8,9.5-1.7c1.1,0,2.8-0.8,3.3-0.3
		c1.1,1,2.1,2.2,3.2,3.5c8.7-11.9,16.2-24.8,22.1-38.6C528,495.6,527.5,495.4,527,495.1z"/>
	<path d="M332.5,383.1c3.3,0.6,6.4,0.5,9.2,3.1c3.2,3,7.7,2.1,11.8,2.3c2.6,0.2,5.7,0,7.8,1.2c3.5,2.1,6.5,5.1,9.3,8.1
		c1.7,1.8,3.1,2.3,5.1,0.9c0.5-0.4,1.1-0.7,2.6-1.6c0.2,3.2,0.3,5.6,0.4,8c0.1,0.9,0.2,1.8,0.5,2.6c2.7,6.9,5.4,13.7,8.2,20.6
		c0.4,1,1.4,2.1,2.3,2.4c1.7,0.5,5.6-3.1,5.6-5c0-2.4-0.3-4.8-0.4-7.2c-0.3-4.7,1.4-9.2,4.9-11.7c3.4-2.4,6.4-4.9,9.3-7.8
		c4-4,10.7-3.8,13,1.3c2.2,4.8,8.2,7.1,8.2,13c0,0.1,0.3,0.2,0.5,0.3c3.7-2.4,3.9-2.5,5.2,1.8c0.8,2.6,1.1,5.4,1.2,8.2
		c0.1,3.6,0.2,4.9,1.9,6.4c1.8-3.5-1.6-8.5,2.9-11.4c2.8,3.3,5.3,6.5,8.1,9.4c0.8,0.9,3.2,1.7,3.7,1.3c2.7-2.5,5.2-5.4,7.5-8.3
		c0.5-0.6,0.6-2.1,0.1-2.8c-2.5-3.7-4.8-7.6-7.9-10.8c-3.5-3.5-3.8-3.2-0.8-7.4c0.2-0.2,0.3-0.5,0.5-0.7c1-1.2,1.7-2.8,3.8-2
		c2.2,0.8,3.7,2,3.6,4.5c-0.1,1.5,0,3,0,4.5c0.3,0,0.5,0.1,0.8,0.1c1.2-2.1,2.4-4.1,3.5-6.2c1.6-3.1,3.7-5.2,7.3-6.1
		c6.9-1.7,11.1-9.3,8.8-16c-0.7-2.2-2.2-4.1-3.6-6c-1.3-1.8-2.9-3.3-4.3-5c-1.3-1.6-1.8-3.3,0.1-5c0.7-0.6,0.9-1.8,1.4-3
		c-4,0-7.4,0-11.1,0c1.7-4.8,5.5-9.1,8.4-9.7c0.8,1.8,1.6,3.7,2.4,5.7c0.9-0.6,1.4-0.9,1.9-1.2c2.2-1.6,3.8-1.3,4.3,1.2
		c0.4,2.2,1.7,3.3,3.6,3.9c1.9,0.6,2.5,1.9,2.4,3.7c-0.1,1.7,0.2,3.4,2.2,3.6c2.9,0.3,3.8-2.2,5-4.1c1.2-1.7-0.1-2.6-1.2-3.4
		c-1.6-1.2-3.3-2.2-5-3.4c-3-2.1-3.2-3.5-1.2-6.4c0.4-0.6,1.1-1.4,1-2.1c-0.5-3.2,1.6-3.1,3.7-3.2c1.2-0.1,3-0.3,3.3-1.1
		c1.3-2.7,3.2-5.2,2.4-8.6c-0.5-2.3-2.5-8.6-3.5-10.7c-1.4-3.1-3.9-4.1-7-4.1c-1.7,0-3.4,0.4-5.1,0.1c-1.6-0.2-3.9-0.6-4.6-1.7
		c-2.6-4.5,2.7-13.2,7.9-12.8c4.2,0.3,8.3,1.1,12.4,2c2.7,0.6,3.7,0.3,3.8-2.5c0.1-2.2,1.1-3.5,2.7-4.2c-4.6-5.9-9.5-11.5-14.7-16.8
		c-4.5-0.3-9-0.5-13.3-2.1c-2.9-1.1-6.6-0.6-9.8-0.3c-6.6,0.7-12.5-1.3-18.3-4.2c-1.8,3-4,5.4-7.9,4.9c-3.5-0.5-6.9-0.8-10.4-1.3
		c-1.7-0.3-3.5-0.4-4.9-1.2c-4.1-2.3-8.2-2.1-12.5-1.1c-1.9,0.4-4.1,1.2-5.9,0.7c-5.4-1.4-10.9-2.1-16.5-1.8c-0.1,0-0.3-0.2-0.8-0.7
		c1.2-1.5,2.4-3,3.8-4.7c-1.1-0.4-2-0.9-2.9-1c-5.9-0.3-11.8-0.4-17.7-0.6c-1.2,0-2.4,0-3.6,0.2c-1.1,0.2-2.4,0.4-3.1,1.1
		c-2.4,2.3-5.1,3.2-8.4,3.5c-3.9,0.3-7.8,1.1-12.2,1.7c0.4,1.8,0.6,3.2,1.2,4.4c0.8,1.8,0.9,3.6-1,4.3c-0.8,0.3-2.4-1.2-3.2-2.2
		c-1.1-1.2-1.7-2.8-2.5-4.2c-0.2,0.1-0.4,0.2-0.6,0.3c1,2.2,2.2,4.4,3,6.7c0.3,0.8,0,2.6-0.2,2.6c-1.3,0.2-2.7,0.3-3.8-0.2
		c-0.6-0.3-0.6-2-0.5-3c0.1-5.7-4-9-9.7-7.7c-0.3,4,3.1,5.8,5.1,8.4c-3.3,2.9-9.2,2.6-13.1-1c-1.8-1.6-3.2-1.5-4.7-0.2
		c-2.9,2.5-6,2.9-9.6,1.7c-0.9-0.3-2.3-0.3-3.2,0.2c-6,2.7-12.5,4.4-17.1,9.5c-0.5,0.5-2,1-2.4,0.7c-2.4-1.8-4.7-3.8-7.2-6
		c2.8-1.2,5-2,7.6-0.5c0.7,0.4,2.4-0.9,3.6-1.4c-0.7-0.8-1.3-2-2.2-2.4c-1.3-0.6-2.9-0.6-4.3-1.2c-7.4-3-15.2-3.3-23-3.6
		c-1.3,0-2.9,0.3-4,1.1c-5.2,3.7-10.4,7.5-15.5,11.4c-0.8,0.6-1.9,1.6-2,2.5c-0.3,2.9-2.3,3.3-4.5,3.3c-1.7,0-2.4,0.7-2.4,2.3
		c0,1.7,0,3.5,0,5.2c0.2,0.2,0.4,0.4,0.6,0.5c1.1-3.3,2.8-2.3,4.6-1.2c1.5,0.9,3.1,1.5,4.5,2.5c0.8,0.6,1.5,1.5,1.8,2.4
		c0.9,2.7,3.4,3.9,5.5,2.1c2.5-2.2,4.4-4.9,6.6-7.4c-0.4-0.1-0.8-0.3-1.2-0.4c-0.1-1.7-0.4-3.3-0.4-5c-0.1-3.8,3-5.1,5.7-6.4
		c1.1-0.5,2.6-0.4,3.9-0.6c-0.3,1.2-0.5,2.5-0.9,3.7c-0.1,0.5-0.6,0.8-0.7,1.3c-0.2,1.1-0.8,2.6-0.3,3.1c0.8,0.9,2.2,1.3,3.5,1.5
		c1.5,0.1,3-0.4,4.5-0.4c0.7,0,1.5,0.7,2.2,1.1c-0.4,0.7-0.7,1.9-1.2,2c-1.9,0.4-3.8,0.4-5.7,0.5c0.8,5,0.8,5-4,5.2
		c-0.8,5.1-1.3,5.4-6.5,5.4c-1.3,0-2.6,0.9-3.9,1.1c-1,0.2-2.1,0-3.2-0.1c-1.9-0.2-3.7-0.5-5.6-0.6c-1.3-0.1-2.7,0-4,0
		c-1.7,0.5-3.4,1.7-5.3,2.5c-1.5,0.7-3.4,0.6-3.5,3c0,0.5-0.9,1-1.4,1.3c-1.2,0.8-2.4,1.5-3.7,2.2c-1.5,0.9-2.9,2-4.5,2.5
		c-2.1,0.6-4.3,0.8-7.3,1.2c1.8,1.2,2.9,1.9,4.5,2.9c-2.1,0.1-3.6,0.2-5.2,0.4c1.6,1.7,2.9,3,4.1,4.4c1.6,1.8,1.3,4.2,0.1,5.6
		c-1.2,1.4-3.4,2.4-5.7,1c-1.2-0.7-2.6-1.1-3.9-1.4c-3.4-0.7-5.5,1.2-5.6,4.7c-0.1,2.2-0.4,4.3-0.5,6.5c-0.1,2.1-0.2,4.4,2.6,5.1
		c2.3,0.6,4.6,1.2,6.9,1.7c0.5,0.1,1.3,0.1,1.7-0.2c2-1.1,4-2.2,5.8-3.6c0.8-0.6,1-1.9,1.6-2.9c1-1.6,1.9-3.3,3.1-4.7
		c0.9-1.1,2.4-1.7,3.2-2.8c1.6-2.2,3.2-3.5,6-2.4c0.8,0.3,1.9,0,3,0c0.1-1.2,0.2-2.1,0.4-3.7c1.8,1,3.4,1.6,4.9,2.6
		c1.4,0.9,2.4,2.3,3.8,3.2c3.1,2.2,6.3,4.2,9.8,6.5c-1.3,1.5-1.9,2.5-2.7,3.1c-0.9,0.6-2,1-3,1.4c2.7,1.4,5.5-1.1,6.8-5.9
		c0.8,0.1,1.5,0.2,2.3,0.3c0.1-0.3,0.3-0.5,0.4-0.8c-2.1-1.5-4.2-3.1-6.4-4.6c-3-2-6-4.1-6.2-8.4c2.7,1.1,5.1,2.6,7.4,4.1
		c1.6,1,2.9,2.7,4.6,3.2c2.1,0.6,2.2,1.9,3,3.5c1.6,3.6,3.8,6.9,5.9,10.2c0.2,0.4,1.4,0.2,1.7,0.3c0.9-1.5,1.6-2.6,2.3-3.9
		c-1-1.3-3.3-2.4-2.3-4c3.4-0.8,5.8-1.4,8.5-2.1c0,0.7,0,1.2-0.1,1.6c-0.9,6.7,2.2,9.4,8.4,9.7c3.3,0.1,6.6,0.2,9.9,0
		c2.3-0.1,2.9,1.1,2.5,3c-0.6,2.4-1.4,4.8-2.3,7.1c-1.2,3.1-3.6,4-6.8,3.7c-2.6-0.3-5.2-0.7-7.8-0.6c-5.8,0.2-11.1-1.4-16.1-4.5
		c-1.1,6.7-4.3,7.7-7.6,5.4c-4.3-2.9-9.7-2.9-13.7-6.4c-1.3-1.2-2.1-1.9-1.9-3.4c0.2-1.2,0.7-2.3,1-3.4c0.2-0.7,0.3-1.5,0.1-2.1
		c-0.1-0.3-1.2-0.4-1.8-0.3c-1.9,0.4-3.7,1.5-5.5,1.3c-7.4-0.5-14.1,4.1-21.6,2.7c-0.3-0.1-0.7,0.4-1.1,0.4
		c-1.5,0.2-3.1,0.3-5.1,0.4c-2,1.6-4.7,3.6-7.1,5.8c-1.1,1-2.4,2.8-2.3,4c0.4,3.1-1.8,4.1-3.4,5.8c-3.2,3.3-6.7,6.5-9.1,10.3
		c-2.2,3.5-4.2,7.3-3.5,12.1c0.5,3.1,0.4,6.8-0.9,9.5c-1.6,3.4,0.7,6.2,0.1,9.3c-0.1,0.3,0.7,0.7,1,1c2,2.3,3.9,4.7,5.8,7.1
		c1.4,1.8,2.5,3.9,4,5.6c3.3,3.5,7,6.5,12.2,5.6c1.7-0.3,3.3-1.4,5-1.8c3.5-0.8,7-1.3,10.4-2.1c4.7-1.1,9.3-1.9,12.5,3.1
		c0.3,0.4,1,0.7,1.5,0.8c6,0.8,8.7,3.3,7,8.6c-1.7,5.2,0.1,8.2,3.2,11.7c1.9,2.1,3,5.2,3.7,8.1c1.1,4.2,2,8.6,2.1,12.9
		c0.1,2.1-1.7,4.4-2.7,6.5c-1.6,3.4-2.1,6.5,0,10.1c3.1,5.2,5.7,10.7,5.9,17.1c0.1,3.3,0.6,6.8,3.6,9.1c0.6,0.5,1.1,1.3,1.3,2
		c0.8,2.4,1.5,4.9,2.2,7.4c0.8,3.2,2.7,4.9,4.7,4.4c1.6-0.4,3.3-0.4,4.8-1c3.8-1.3,8-1.7,10.8-5.1c1.9-2.2,3.8-4.5,6.2-6.1
		c2.8-1.9,3.7-4.8,5.4-7.3c1.2-1.9,2.4-4.2,4.1-5.3c2.7-1.7,2.6-4.2,1.8-6.1c-1.3-3.1-0.2-5.4,1.4-7.5c1.9-2.4,4.1-4.7,6.7-6.4
		c3.6-2.3,5-5.5,4.5-9.4c-0.6-4.5-1.1-9.2-2.6-13.5c-1.4-4.2-0.3-7.1,2.2-10.2c7-8.6,13.8-17.3,20.8-26c2.6-3.2,3-7,3.7-10.6
		c-5.6,0.4-10.9,0.8-16.2,1.4c-2,0.2-2.5-0.5-3.1-2.2c-0.9-2.5-1.9-5.1-3.4-7.2c-2-2.9-5.2-5.2-6.8-8.3c-4.7-9-8.8-18.3-13.4-27.8
		c1.1,0.4,1.8,1.1,2.4,0.9c2.6-0.6,3.7,1,4.9,2.9c4.3,7,8.4,14,13.1,20.7c2.5,3.7,3.7,7.6,5,11.8c0.8,2.7,2.9,3.5,5.4,2.9
		c1.7-0.4,3.4-1.2,5-1.9c2.1-1,4.1-2.1,6.1-3.2c3-1.7,6.4-3,8.9-5.3c3.5-3.2,6.4-7,9.5-10.7c0.4-0.4,0-2.2-0.6-2.5
		c-3.7-2-6.2-5-7.5-9.7c-1,0.7-1.7,1.7-2.3,2.8c-1.5,2.9-4.6,3.8-7.1,3.6c-2.3-0.2-4.3-2.4-5-5.3c-0.6-2.4-1.9-4.6-2.6-7
		c-0.4-1.4-0.3-2.9-0.6-5.1C324.3,378.9,327.8,382.2,332.5,383.1z"/>
	<path d="M310.6,512c0.2,1.3,2,3.2,3.3,3.3c3.1,0.4,5.1-1.6,5.4-4c0.2-1.7,0.5-3.4,1-5c1.7-4.9,3.8-9.6,5.2-14.5
		c0.7-2.2,0.1-4.8,0.1-7.3c-0.3-0.1-0.7-0.1-1-0.2c-2,5.5-7.2,6.4-11.8,8.9c0.2,1.1,0.6,2.1,0.5,3.1c-0.3,2.7,0.3,6.5-1.3,7.9
		C309.3,506.9,310.2,509.5,310.6,512z"/>
	<path d="M444.2,447.2c-3-0.5-4.9-2.3-6.2-4.7c-1.1-2.1-2.7-3.1-5.2-2.9c4.8,7.5,9.5,14.9,14.2,22.1c1.1,1.7,2.3,3.3,3.7,4.7
		c1.8,1.7,3.6,1.2,4.3-1.1c0.3-1.1,0.2-2.7-0.4-3.7c-2.6-4.3-5.3-8.4-8.1-12.6C445.9,448.2,445,447.4,444.2,447.2z"/>
	<path d="M483.6,440.1c-0.5-1.3-1.6-2.6-2.8-3.5c-0.4-0.3-1.8,0.7-2.7,1.3c-1.9,1.1-3.8,2.3-5.6,3.6c-0.8,0.6-1.9,1.1-2.3,2
		c-1.1,1.9-1.9,4.1-2.9,6.2c-1.2-0.2-2.2-0.4-3.5-0.7c-1.1,3.9,0.4,6.8,2.1,9.7c1.5,2.4,3.8,0.9,5.8,1.2c3.2,0.5,7,2.2,7.5-3.4
		c0-0.1,0.1-0.1,0.2-0.2c2.8-2.9,5.1-5.9,2.7-10.2c-0.3-0.6,0.3-1.7,0.5-2.5C483.1,442.3,483.9,441,483.6,440.1z"/>
	<path d="M530.5,457.7c-1.9-0.8-2.9-1-4,1.3c-1.5,3.3-4.7,3.2-6.5,0c-0.6-1-0.9-2.2-1-3.4c-0.2-1.7-1-2.3-2.6-1.7
		c-0.8,0.3-1.6,0.3-2.9,0.6c1.6,1.3,2.8,2.4,4,3.5c-1.7,2.5-1.3,3,1.7,3.8c2.7,0.7,5.3,1.6,7.9,2.8c3.1,1.4,2.8,4.3,2.3,6.7
		c1.4,0.5,2.7,0.6,3.5,1.3c1.1,0.8,2.3,1.2,3.4,1.4c1.2-4.2,2.3-8.4,3.3-12.7C536.6,460,533.5,458.9,530.5,457.7z"/>
</g>
</svg>
